<svg width="59" height="44" viewBox="0 0 59 44" fill="none" xmlns="http://www.w3.org/2000/svg">
<path d="M23.537 1C20.2712 2.6329 17.2134 4.4192 14.416 6.76544C11.5061 9.20597 8.35081 11.0482 5.90507 14.0256C4.52685 15.7035 2.9386 17.5677 2.12245 19.608C1.97827 19.9685 0.819067 23.1709 1.02427 23.2991C6.82637 26.9255 11.6971 31.754 16.3988 36.6908C18.5263 38.9247 20.4032 41.0877 23.2624 42.5173C24.2996 43.0359 24.6351 43.1508 24.6351 41.9682C24.6351 40.8866 25.1842 39.9401 25.1842 38.8262C25.1842 35.9591 24.9161 32.9382 25.3978 30.1018C25.4869 29.5769 25.6044 26.8003 26.4959 27.6919C27.6067 28.8026 30.5541 28.1799 31.9868 28.1799C35.8944 28.1799 39.9021 28.4431 43.7923 28.1189C46.267 27.9127 48.826 28.1225 51.266 27.6919C52.7164 27.4359 54.441 27.4323 55.7807 26.8682C56.5965 26.5247 57.048 26.652 57.5195 25.709C58.1812 24.3857 58.1296 23.502 58.1296 21.9264C58.1296 20.0167 57.9913 18.3806 57.6415 16.527C57.4701 15.6186 57.6762 13.7802 56.7569 13.2935C53.9803 11.8236 50.056 13.08 47.0868 13.08C43.1899 13.08 39.2677 13.6291 35.3424 13.6291C32.2512 13.6291 29.16 13.6291 26.0689 13.6291C24.694 13.6291 24.0059 13.6997 24.086 12.2563C24.1556 11.0044 25.7934 1.27454 23.8115 1.27454" stroke="black" stroke-linecap="round" stroke-linejoin="round"/>
</svg>
