<svg width="122" height="56" viewBox="0 0 122 56" fill="none" xmlns="http://www.w3.org/2000/svg">
<path d="M89.5414 1.71985C89.0457 2.53974 88.5513 3.34855 88.0697 4.16734C87.8598 4.52418 87.4025 5.17964 87.0219 5.39108C85.9697 5.97566 85.1607 6.99426 84.0705 7.51063C82.0137 8.48494 80.352 10.0258 78.3118 11.0459C77.4231 11.4902 76.4245 11.6767 75.5043 12.0857C74.9319 12.3401 74.3481 12.5515 73.7767 12.8055C73.4273 12.9608 73.075 13.4781 72.6969 13.5254C72.3391 13.5701 71.8972 14.075 71.5132 14.2132C70.8909 14.4372 70.2908 14.9475 69.7456 15.325C69.0151 15.8307 67.9247 16.1445 67.482 16.9806C67.0762 17.7473 66.6183 18.4522 66.0023 19.0682C65.1832 19.8874 64.9028 21.2164 64.1707 22.1316C63.5379 22.9226 63.1904 24.0327 62.5471 24.819C61.3431 26.2905 61.1704 28.2664 60.4275 29.9379C59.9461 31.0211 59.7396 32.2736 59.7396 33.4652C59.7396 35.1461 59.5957 36.7899 59.5957 38.4641C59.5957 39.1825 59.7146 41.1286 59.1318 41.7115C58.7696 42.0737 58.5646 42.4007 58.236 42.8232C57.713 43.4955 57.5218 44.4514 57.1482 45.1987" stroke="black" stroke-linecap="round" stroke-linejoin="round"/>
<path d="M78.7437 1.71985C80.3359 1.71985 81.9001 1.14397 83.4947 1.14397C84.8197 1.14397 86.1658 1 87.5258 1C89.0485 1 90.309 1.06924 91.7009 1.68786C92.3186 1.96237 92.9502 2.3636 93.5006 2.79162C93.7642 2.9967 94.994 4.02337 94.5803 4.02337" stroke="black" stroke-linecap="round" stroke-linejoin="round"/>
<path d="M78.4557 2.00781C78.1986 3.17901 77.3681 4.30851 77.3039 5.46309C77.2474 6.48083 76.712 7.59064 76.2641 8.48645C75.7896 9.43552 75.4666 10.6117 74.7125 11.3658C74.3178 11.7605 74.1504 12.158 73.6327 12.4456C73.2154 12.6774 72.9185 13.3814 72.4089 13.3814" stroke="black" stroke-linecap="round" stroke-linejoin="round"/>
<path d="M65.7863 18.5643C65.0005 18.8901 64.6432 19.1955 64.0906 19.7481C63.7897 20.049 63.6449 20.6472 63.2588 20.8678C62.5492 21.2733 61.8505 21.8555 61.1472 22.3075C60.4474 22.7574 60.1182 23.1156 59.6755 23.8112C59.2058 24.5494 58.5878 25.6689 58.5878 26.5627C58.5878 27.0953 58.6002 27.6298 58.5878 28.1623C58.5706 28.9005 58.1559 29.572 58.1559 30.2899C58.1559 31.6653 57.58 33.0178 57.58 34.401C57.58 34.8569 57.58 35.3128 57.58 35.7687C57.58 36.3493 57.8679 36.8641 57.8679 37.4244C57.8679 40.1001 57.8475 42.8332 56.4282 45.1987" stroke="black" stroke-linecap="round" stroke-linejoin="round"/>
<path d="M94.5804 4.45526C93.4827 4.94732 92.5991 5.7464 91.557 6.29488C91.0382 6.56793 90.566 7.11402 89.9734 7.19869C88.7442 7.37428 87.4356 8.10042 86.3741 8.66238C85.0816 9.34664 83.5139 9.42556 82.271 10.286C81.0674 11.1193 79.4357 11.3936 78.3838 12.4456C76.9486 13.8808 74.9501 14.2956 73.5608 15.6849C72.7315 16.5142 71.5588 16.9511 70.7374 17.7725C70.1505 18.3593 69.4113 18.8266 68.8098 19.4281C68.2496 19.9883 67.8649 20.6609 67.3061 21.2197C66.7535 21.7724 66.0892 22.7127 65.7144 23.3873C65.4158 23.9248 64.9724 24.3505 64.6347 24.867C64.076 25.7214 63.191 26.8745 63.059 27.9303C62.9211 29.0339 62.3312 30.1017 62.3312 31.2336C62.3312 32.162 62.3437 33.0644 62.0752 33.9371C61.9527 34.3353 61.8992 35.0357 61.8992 35.4408C61.8992 36.0754 61.6113 36.6301 61.6113 37.2804C61.6113 38.0979 61.1085 39.1481 60.8835 39.9358C60.6583 40.7239 59.8347 41.608 59.7397 42.4633C59.6567 43.2102 58.4338 44.1909 57.7241 44.1909" stroke="black" stroke-linecap="round" stroke-linejoin="round"/>
<path d="M62.043 38.4321C62.043 37.7218 61.9176 36.9937 62.331 36.3846C62.7149 35.8189 63.0145 35.1832 63.4827 34.6889C63.8551 34.2959 64.4158 33.8133 64.6345 33.3212C65.0263 32.4397 65.736 31.6678 66.0742 30.7378C66.3562 29.9621 67.1337 29.4782 67.4019 28.7542C67.5857 28.258 68.0905 27.7762 68.4097 27.3465C68.7464 26.8932 69.1555 26.4979 69.4975 26.0507C70.0872 25.2796 70.813 24.6021 71.4731 23.8912C72.2735 23.0292 73.1432 22.2243 74.0645 21.5077C75.1234 20.6841 76.4282 20.2332 77.4158 19.3161C78.9116 17.9272 81.2643 16.9206 83.1346 16.1888C84.4935 15.6571 85.7641 14.8231 87.2138 14.5332C88.4989 14.2761 89.7974 13.9023 91.0929 13.6373C93.6223 13.12 96.234 12.9495 98.8193 12.9495C100.11 12.9495 102.242 12.8692 102.93 14.2452" stroke="black" stroke-linecap="round" stroke-linejoin="round"/>
<path d="M102.786 14.5332C101.82 14.5332 100.656 14.5101 99.7631 14.9331C99.3356 15.1356 98.7613 15.3789 98.2914 15.397C97.2689 15.4363 96.2603 15.9729 95.2281 15.9729C94.166 15.9729 92.5313 16.1705 91.5569 16.5808C91.029 16.803 90.3736 16.8145 89.7972 16.8367C89.1805 16.8604 88.6095 17.1537 88.0216 17.2606C86.8745 17.4692 85.68 18.1798 84.5343 18.5323C84.1101 18.6629 83.8792 18.658 83.4945 18.8843C83.0692 19.1345 82.7139 19.4675 82.2788 19.7161C81.6333 20.0849 80.8102 20.4649 80.2952 20.9798C79.5974 21.6777 78.6324 22.3901 77.6718 22.7395C74.681 23.827 72.953 26.8024 70.8252 28.9302C69.6229 30.1324 68.646 31.5412 67.4419 32.7454C66.3216 33.8657 65.7729 35.4232 64.7465 36.5286C63.8733 37.4689 63.4634 38.9564 62.8349 40.0878C62.4059 40.8601 62.0656 41.6599 61.7871 42.4953C61.5921 43.0804 61.2796 43.5856 61.0672 44.159C60.8188 44.8298 60.453 45.0611 59.9555 45.5587C59.3631 46.1511 59.3076 45.3306 59.3076 44.7748C59.3076 44.2923 59.3076 42.8446 59.3076 43.3271" stroke="black" stroke-linecap="round" stroke-linejoin="round"/>
<path d="M61.1792 44.3349C62.8358 42.6783 64.3259 40.752 65.5783 38.7841C66.3018 37.6472 66.907 36.5916 67.8738 35.6247C69.0371 34.4614 70.2922 33.4747 71.537 32.3854C72.0086 31.9728 72.5747 31.8165 73.0567 31.4416C73.5724 31.0406 74.1356 30.5312 74.7124 30.2259C76.1326 29.474 77.5699 28.6331 78.9195 27.7784C79.7301 27.265 80.6573 27.0017 81.407 26.4187C81.8166 26.1001 82.4319 25.7999 82.9506 25.7628C83.7524 25.7055 84.483 25.3309 85.2941 25.3309C86.0861 25.3309 86.8522 25.1869 87.6376 25.1869C90.9254 25.1869 94.1299 24.899 97.4036 24.899C99.4083 24.899 101.461 24.755 103.434 24.755C104.535 24.755 106.133 24.6559 107.034 23.9552C107.474 23.613 107.839 23.3718 108.329 23.0994C108.991 22.7318 108.374 22.5417 107.969 22.3395C107.232 21.9707 106.098 21.9076 105.266 21.8756C104.198 21.8345 103.291 21.9471 102.499 22.7394C101.956 23.2821 101.142 24.1378 100.483 24.4671" stroke="black" stroke-linecap="round" stroke-linejoin="round"/>
<path d="M63.9148 42.7512C65.0417 40.9308 66.9834 39.9063 68.2979 38.2162C69.2206 37.0298 70.2754 35.8307 71.3372 34.7689C71.929 34.1771 72.7436 33.8136 73.4888 33.4572C74.3487 33.0459 75.1302 32.2356 76.0802 32.0895C76.4505 32.0325 76.9552 31.7804 77.304 31.6336C77.6539 31.4863 78.0526 31.4598 78.3918 31.3056C79.0089 31.0251 79.8031 30.7334 80.4793 30.6658C82.7549 30.4382 85.1892 29.9578 87.3499 29.1861C88.1826 28.8887 89.0186 28.7371 89.8614 28.4662C90.8236 28.1569 91.9223 28.2448 92.8527 27.8904C93.7141 27.5622 94.8098 27.2524 95.7321 27.2025C96.6859 27.1509 97.667 26.6763 98.6115 26.6266C99.5016 26.5798 100.191 26.0507 101.091 26.0507C101.978 26.0507 102.785 25.6188 103.65 25.6188" stroke="black" stroke-linecap="round" stroke-linejoin="round"/>
<path d="M67.9458 39.296C69.8621 38.3566 72.0791 37.4895 74.1365 36.9605C75.8262 36.526 77.6875 36.4615 79.3194 35.8087C80.5626 35.3114 82.032 35.0501 83.3506 34.9769C84.0282 34.9392 84.7198 34.9769 85.3981 34.9769C86.1924 34.9769 87.3293 34.9725 88.1016 34.8009C90.0433 34.3694 92.077 34.7738 93.9723 35.1528C96.3661 35.6316 98.821 35.6313 101.203 36.1606C103.671 36.7091 106.449 36.5606 108.977 36.5606C109.827 36.5606 110.626 36.7045 111.457 36.7045C111.98 36.7045 113.369 36.491 113.584 37.1364" stroke="black" stroke-linecap="round" stroke-linejoin="round"/>
<path d="M61.3232 45.3427C62.8907 45.0068 64.3986 44.6348 65.5304 43.5031C66.1912 42.8422 67.2856 42.2223 68.0898 41.7755C68.5911 41.497 68.9718 41.1196 69.4495 40.8157C69.8914 40.5345 70.406 40.4272 70.8572 40.1598C71.6333 39.6999 72.7669 39.4697 73.6407 39.152C74.5662 38.8154 75.6676 38.8293 76.5121 38.3602C77.3538 37.8925 78.4619 37.9175 79.3195 37.5363C81.295 36.6584 83.7973 36.7045 85.9421 36.7045C87.5441 36.7045 89.1308 36.7625 90.7011 37.0644C92.1573 37.3445 93.8128 37.7123 95.2921 37.7123C97.3638 37.7123 99.5256 37.8563 101.635 37.8563C102.487 37.8563 103.489 38.1442 104.37 38.1442C106.025 38.1442 107.628 38.2882 109.257 38.2882C109.75 38.2882 110.244 38.2999 110.737 38.2882C111.283 38.2752 111.812 38.0002 112.353 38.0002C112.712 38.0002 113.399 37.8265 113.728 37.6803C114.369 37.3955 113.922 37.3138 113.44 36.9925" stroke="black" stroke-linecap="round" stroke-linejoin="round"/>
<path d="M66.2184 43.4711C68.8064 43.4711 70.7218 42.2153 73.0969 41.4235C73.9668 41.1336 74.723 40.4541 75.6484 40.3118C77.6166 40.009 79.6568 39.5839 81.6551 39.5839C83.8114 39.5839 86.0574 39.4399 88.2538 39.4399C89.4006 39.4399 90.6476 39.6992 91.773 39.9438C92.8385 40.1755 93.9548 40.0368 95.0123 40.2718C95.6862 40.4215 96.3745 40.2709 97.0599 40.4477C98.1428 40.7272 99.2649 40.8415 100.339 41.1676C101.679 41.5742 103.117 41.4027 104.45 41.8874C105.579 42.2977 106.819 42.3598 107.97 42.6793C108.588 42.8511 109.356 43.1133 109.985 43.1832C110.606 43.2521 111.227 43.724 111.857 43.759C112.483 43.7938 112.577 43.9318 112.073 44.3349C111.73 44.6091 110.934 44.9108 110.481 44.9108C109.747 44.9108 109.036 45.3427 108.258 45.3427C107.428 45.3427 106.615 45.3968 105.81 45.1667C104.991 44.9327 104.274 44.3854 103.435 44.1989C101.932 43.8651 100.391 43.5125 98.9315 43.0072C98.2844 42.7832 97.319 42.6329 96.628 42.6073C95.7527 42.5749 94.8878 42.3193 94.0126 42.3193C92.4103 42.3193 90.8843 41.8874 89.2536 41.8874C87.6878 41.8874 86.1755 41.5995 84.6385 41.5995C83.6781 41.5995 82.3077 41.3432 81.4072 41.7435C80.6724 42.07 79.9029 42.2929 79.1757 42.6393C77.6305 43.375 75.7669 43.7374 74.1367 44.2709C73.1253 44.6019 72.0167 44.9108 70.9614 44.9108C68.1757 44.9108 65.4087 45.0548 62.6191 45.0548" stroke="black" stroke-linecap="round" stroke-linejoin="round"/>
<path d="M70.5374 45.6307C73.5934 45.6307 76.6263 45.4867 79.6874 45.4867C81.229 45.4867 82.7713 45.437 84.2945 45.6627C86.3398 45.9657 88.3828 46.6385 90.4692 46.6385C93.7658 46.6385 97.0315 46.4945 100.339 46.4945C103.438 46.4945 106.584 46.6385 109.705 46.6385C110.918 46.6385 112.467 46.8947 113.656 46.6305C114.105 46.5307 114.47 46.4945 114.952 46.4945C115.514 46.4945 115.522 46.4995 115.744 46.9984C115.984 47.5379 116.361 48.284 116.824 48.654C117.487 49.1847 118.574 49.248 119.231 49.7738C119.506 49.9934 119.86 49.9968 120.031 50.3817C120.109 50.5572 120.264 51.3777 120.063 51.3895C119.258 51.4368 118.235 50.6709 117.392 50.5176C116.385 50.3346 115.41 50.0937 114.376 50.0937C113.119 50.0937 115.105 49.8058 115.52 49.8058C115.93 49.8058 116.341 49.8058 116.752 49.8058" stroke="black" stroke-linecap="round" stroke-linejoin="round"/>
<path d="M59.8835 45.4867C60.6767 45.4867 62.8177 45.0866 63.3388 45.9986C63.6936 46.6194 64.3964 46.942 64.7465 47.5022C65.0129 47.9284 66.2355 48.2659 66.7221 48.3741C67.5252 48.5525 68.1412 49.0546 68.9856 49.0859C70.8786 49.156 72.7957 49.2299 74.7124 49.2299C75.6509 49.2299 76.5894 49.2299 77.5278 49.2299C79.1264 49.2299 81.3563 48.8415 82.8867 49.3739C84.5341 49.9469 86.6852 49.6618 88.3896 49.6618C89.3894 49.6618 90.3528 49.9497 91.301 49.9497C92.4026 49.9497 93.5646 50.3213 94.6443 50.5176C96.0826 50.7791 97.5933 50.6981 99.0433 50.9255C100.773 51.1968 102.686 50.9575 104.442 50.9575C105.725 50.9575 107.007 50.9575 108.289 50.9575C109.196 50.9575 110.057 50.6696 110.961 50.6696C111.809 50.6696 112.656 50.6696 113.504 50.6696C114.09 50.6696 115.756 50.4065 116.032 50.9575" stroke="black" stroke-linecap="round" stroke-linejoin="round"/>
<path d="M54.2688 46.0625C55.5682 46.0625 57.0402 45.7106 58.188 45.0548C58.7472 44.7352 59.5317 44.4789 60.1716 44.4789" stroke="black" stroke-linecap="round" stroke-linejoin="round"/>
<path d="M54.8447 46.2065C56.4311 48.1775 58.4428 49.9498 61.1154 49.9498C62.1481 49.9498 63.0592 49.8869 64.0588 49.6298C64.5037 49.5154 65.1111 49.3739 65.5625 49.3739C67.0288 49.3739 68.4952 49.3739 69.9616 49.3739" stroke="black" stroke-linecap="round" stroke-linejoin="round"/>
<path d="M52.8291 46.9264C52.8291 48.2239 53.4876 48.912 53.9809 50.0217C54.2223 50.5649 55.3761 51.8656 55.9245 52.1093C56.8037 52.5001 57.4827 53.1304 58.4439 53.405C59.6511 53.7499 60.9215 53.9809 62.1951 53.9809C64.976 53.9809 67.7891 53.8369 70.5454 53.8369C73.7334 53.8369 76.8844 53.405 80.0554 53.405C81.2396 53.405 82.4204 53.2611 83.5906 53.2611C85.1452 53.2611 86.8717 53.4864 88.3896 53.1491C88.9067 53.0342 89.525 53.1171 90.0533 53.1171C91.0136 53.1171 92.047 53.0084 92.9967 53.1491C96.6485 53.6901 100.4 54.1693 104.082 54.2689C108.145 54.3786 112.168 55.2429 116.224 54.5888C117.196 54.432 118.098 54.0743 119.047 53.8369C119.375 53.755 119.771 53.4394 120.063 53.405C120.276 53.38 120.639 52.979 120.639 52.7572C120.639 52.3468 120.364 52.2792 120.207 51.9653" stroke="black" stroke-linecap="round" stroke-linejoin="round"/>
<path d="M1 52.3972C2.63382 52.7559 4.04083 54.0978 5.751 54.2689C6.45573 54.3393 7.01931 54.5568 7.76658 54.5568C9.11414 54.5568 10.5413 54.6552 11.8617 54.3408C12.7116 54.1385 13.5844 54.2242 14.4532 54.0129C15.7387 53.7002 17.0958 53.4159 18.4123 53.2611C20.7445 52.9867 23.0547 52.3584 25.3309 51.7894C27.0483 51.36 28.9311 51.3893 30.6898 51.0695C32.2683 50.7825 33.7884 50.5994 35.3528 50.3097C37.4831 49.9152 39.6814 49.651 41.7754 49.0859C42.9988 48.7558 44.2618 48.7443 45.4867 48.4381C46.8182 48.1052 48.2115 48.0015 49.5498 47.7582C50.2668 47.6279 50.982 47.4293 51.6774 47.2143C51.9563 47.1281 52.5624 47.1719 52.6852 46.9264" stroke="black" stroke-linecap="round" stroke-linejoin="round"/>
<path d="M1 52.6851C3.11444 49.8941 6.72722 51.3596 9.67018 50.4136C10.3779 50.1861 11.2699 50.0937 12.0137 50.0937C12.7583 50.0937 13.4986 49.8057 14.2372 49.8057C16.3035 49.8057 18.3697 49.8057 20.4359 49.8057C21.7552 49.8057 23.147 49.929 24.4591 49.7977C26.0268 49.641 27.556 49.2061 29.0981 48.9339C30.0347 48.7686 31.005 48.4882 31.9215 48.2221C32.673 48.0039 33.3896 47.5619 34.145 47.3902C35.1317 47.166 36.4496 47.1659 37.3604 46.7824C38.8304 46.1634 40.5681 46.317 42.0874 45.8546C43.2708 45.4944 44.6883 45.6306 45.9106 45.6306C48.3196 45.6306 50.693 46.0625 53.1171 46.0625" stroke="black" stroke-linecap="round" stroke-linejoin="round"/>
<path d="M4.45508 50.9575C4.75498 50.2578 5.90259 48.5803 6.83058 48.3741C7.88648 48.1394 8.97513 47.9931 10.0379 47.6782C10.3366 47.5897 10.7118 47.6462 11.0217 47.6462C11.9353 47.6462 12.8153 47.3583 13.7411 47.3583C15.3604 47.3583 16.8752 47.0996 18.4201 46.6704C19.7297 46.3067 21.1542 46.0443 22.5073 45.9266C23.7908 45.815 25.0672 45.2694 26.3385 45.1987C27.401 45.1397 28.7043 44.686 29.7298 44.3989C30.6545 44.14 31.9075 44.0085 32.7451 43.5431C32.9986 43.4023 33.4552 43.4273 33.7449 43.3591C34.4934 43.183 35.3038 43.1922 36.0644 43.0072C36.6566 42.8632 37.2555 42.7408 37.8561 42.6073C38.375 42.492 39.0088 42.4527 39.5037 42.3114C40.9843 41.8883 42.9554 42.1754 44.5427 42.1754C46.2578 42.1754 49.023 41.6955 50.5974 42.5433C51.3977 42.9742 52.0325 43.4728 52.8289 43.871C53.7371 44.3251 54.4116 44.9098 55.1324 45.6307" stroke="black" stroke-linecap="round" stroke-linejoin="round"/>
<path d="M34.4009 47.0703C35.1085 46.7839 36.0964 46.2065 36.8484 46.2065C37.7375 46.2065 38.494 45.1003 39.2239 44.6948C39.7705 44.3911 40.8525 44.3957 41.4714 44.3269C42.697 44.1907 43.896 43.8997 45.1266 43.759C46.7506 43.5734 48.4037 43.2724 49.9496 43.727C50.5024 43.8896 53.8248 46.3625 53.6928 46.4944" stroke="black" stroke-width="0.5" stroke-linecap="round" stroke-linejoin="round"/>
<path d="M90.2612 5.46307C91.1234 5.27382 91.7641 4.87625 92.5008 4.45529C92.9926 4.17423 93.3029 3.51034 93.7165 3.30353" stroke="black" stroke-width="0.5" stroke-linecap="round" stroke-linejoin="round"/>
<path d="M77.5918 46.2065C78.904 46.2065 80.2475 46.1196 81.551 46.2785C82.4649 46.39 83.4396 46.6385 84.3584 46.6385C85.1105 46.6385 85.7136 47.0171 86.4059 47.0704C86.6626 47.0901 87.252 47.1609 87.4617 47.2943C87.8929 47.5687 88.3016 47.402 88.7495 47.5743C89.7629 47.964 91.0099 47.5905 92.0528 47.8222C92.7303 47.9728 93.3973 47.9661 94.0763 48.1421C94.9872 48.3783 95.9649 48.0664 96.8758 48.2941C98.6904 48.7478 100.95 48.3039 102.755 48.0462C105.312 47.6808 107.978 46.6385 110.561 46.6385" stroke="black" stroke-width="0.5" stroke-linecap="round" stroke-linejoin="round"/>
</svg>
