<svg width="85" height="65" viewBox="0 0 85 65" fill="none" xmlns="http://www.w3.org/2000/svg">
<path d="M1.48194 41.0647C1.48194 37.7706 1.29052 35.3454 3.14188 32.5509C5.9326 28.3385 9.41152 24.4063 13.048 20.9045C21.4394 12.8239 34.7461 8.33061 46.0861 7.06278C50.6298 6.55479 56.1929 6.21909 60.4901 8.02662C66.2762 10.4605 70.8706 15.0586 74.7334 19.8871C76.6372 22.2668 81.4803 26.112 81.4803 29.4987" stroke="black" stroke-linecap="round" stroke-linejoin="round"/>
<path d="M1 41.0647C4.43992 46.9328 12.0093 50.5103 18.5632 52.1488C29.3238 54.8389 42.5662 56.7841 53.529 54.3174C58.0454 53.3012 63.5237 51.1692 66.9156 47.9186C69.8462 45.1101 72.1537 41.3261 74.7334 38.1732C76.5203 35.9892 78.4928 33.7633 79.9274 31.3193C80.9398 29.5944 81.464 27.5932 82.6582 25.9646C83.065 25.41 83.6052 25.2488 83.8898 24.6795" stroke="black" stroke-linecap="round" stroke-linejoin="round"/>
<path d="M44.3727 15.5231C39.768 15.5231 35.5478 15.727 32.1106 19.1642C28.6194 22.6554 26.0598 29.3535 26.0598 34.2108C26.0598 39.6558 25.2866 43.8422 31.12 46.1248C36.1898 48.1087 42.5526 49.2596 48.0139 48.2667C50.845 47.7519 54.2449 44.2386 55.8316 42.0285C57.5664 39.6122 57.8233 36.6566 58.2412 33.8359C58.8288 29.8699 58.2898 25.7056 55.6978 22.5376C53.7245 20.1258 50.3147 19.0688 47.7461 17.5578C44.7931 15.8207 43.0188 15.8137 39.5535 16.9688" stroke="black" stroke-linecap="round" stroke-linejoin="round"/>
<path d="M35.7216 17.8065C34.9878 17.8398 34.3773 18.4622 33.7897 18.8497C33.3026 19.171 32.8907 19.5506 32.4478 19.9281C32.3258 20.0322 31.7874 20.4997 32.2265 20.1178C32.825 19.5974 33.5549 19.211 34.2533 18.8462C35.2653 18.3177 36.2868 17.7942 37.3164 17.3007C37.4067 17.2574 38.6316 16.5724 38.5634 17.0161C38.4781 17.5704 37.7428 18.2231 37.3866 18.5793C36.1353 19.8306 34.8169 21.1058 33.4208 22.1973C32.9945 22.5306 32.5275 22.8615 32.1317 23.23C32.1005 23.2591 31.9517 23.405 31.9385 23.2862C31.8795 22.7555 32.6491 22.1217 32.9607 21.8179C34.1331 20.6748 35.4917 19.7518 36.8808 18.8954C37.1784 18.7119 37.677 18.4403 37.8995 18.1542C37.9139 18.1358 37.993 18.0094 37.9135 18.0383C37.1364 18.3209 36.4026 19.0906 35.7638 19.5839C34.0847 20.8803 32.3101 22.0829 30.7723 23.5497C30.4777 23.8307 30.2318 24.1496 29.9468 24.4384C29.8479 24.5386 29.5102 24.7748 29.6447 24.7334C29.7153 24.7117 29.8545 24.6111 29.8906 24.5859C30.4979 24.1633 31.1005 23.738 31.7172 23.3284C33.8256 21.928 35.9147 20.5036 38.0084 19.0816C39.6855 17.9425 41.4297 16.8728 42.9788 15.5584C44.9876 13.8539 39.4886 19.5469 37.4147 21.1716C36.8884 21.584 36.3137 21.9 35.7427 22.2395C34.8251 22.785 34.1597 23.5084 33.4946 24.333C32.9053 25.0636 32.3046 25.824 31.8085 26.6233C31.5871 26.9799 31.3486 27.2657 31.0287 27.5436C30.6568 27.8667 30.3314 28.2283 29.9679 28.5587C29.7463 28.7602 29.5856 29.046 29.2724 29.1102C28.7128 29.225 28.6093 28.4483 28.7841 28.088C29.1392 27.3564 30.0146 26.8015 30.6142 26.2931C31.8105 25.2789 32.9445 24.1975 34.1199 23.1598C34.8415 22.5227 35.5184 22.0495 36.3609 21.6283C37.1117 21.2529 37.517 20.7115 38.04 20.0546C38.4811 19.5005 39.9037 17.9239 39.4029 18.4247C37.6427 20.1849 35.9219 21.9986 34.2182 23.8131C32.4272 25.7207 30.7865 27.8028 28.8544 29.5739C28.5237 29.877 28.1795 30.1821 27.8954 30.5293C27.8441 30.592 27.8792 30.5956 27.9446 30.5188C28.1984 30.2209 28.5797 29.9861 28.893 29.7706C30.0291 28.9892 31.1966 28.2539 32.3495 27.4979C34.5586 26.0494 36.6823 24.5127 38.6793 22.7804C39.4153 22.142 40.0837 21.3757 40.8782 20.8063C41.3511 20.4674 41.6716 19.9435 41.9777 19.4574C42.1179 19.2348 42.273 19.0161 42.3957 18.783C42.4822 18.6186 42.4297 18.6889 42.3044 18.7689C40.6532 19.8239 39.2029 21.1624 37.759 22.4783C36.381 23.7342 35.2137 25.1436 33.9161 26.4687C33.6006 26.7909 33.3337 27.1378 32.9115 27.3188C32.5249 27.4845 33.5011 26.7182 33.8107 26.4336C35.5937 24.7949 37.4212 23.2011 39.2624 21.6283C40.5678 20.5131 41.8665 19.5156 43.3441 18.6565C43.5362 18.5448 43.7358 18.4376 43.878 18.2631C43.9118 18.2217 44.0185 18.1133 44.0045 18.1648C43.9207 18.4719 43.1424 18.8347 42.9507 18.9621C41.2962 20.062 39.6037 21.1296 38.0927 22.4256C36.7077 23.6135 35.4817 24.9614 34.2393 26.2931C33.2798 27.3215 32.3094 28.3361 31.387 29.3983C30.6716 30.222 29.8624 31.0026 29.2724 31.9204C29.0242 32.3064 28.742 32.6657 28.4258 33.0023C28.1247 33.3229 27.7896 33.7804 27.4177 34.0139C27.0783 34.227 27.1859 33.4718 27.1859 33.3324C27.1859 32.6494 27.1835 31.9987 27.3896 31.3373C27.3946 31.3212 27.7727 30.3555 27.8146 30.6488C27.8999 31.2456 27.8181 31.9135 27.8181 32.5105C27.8181 33.1592 27.8181 33.8078 27.8181 34.4565C27.8181 34.6369 27.819 34.0954 27.8322 33.9155C27.8919 33.1019 28.1228 32.2946 28.3661 31.5199C28.8591 29.9503 29.3818 28.3444 30.0557 26.841C30.1841 26.5546 30.1574 27.1639 30.1576 27.1853C30.1653 28.4813 30.1849 29.7829 30.1154 31.0773C30.0577 32.1533 29.9541 33.2336 29.8133 34.3019C29.7633 34.6815 29.7848 35.1656 29.6518 35.5314C29.6029 35.6656 29.5816 35.2525 29.5745 35.1099C29.4861 33.3325 29.4702 31.5246 29.5956 29.7495C29.6942 28.3535 29.943 26.9776 30.27 25.6186C30.277 25.5894 30.5048 24.3893 30.565 25.0004C30.8211 27.5972 30.4407 30.2948 29.996 32.8477C29.9109 33.3362 29.8072 33.8212 29.7185 34.309C29.683 34.5044 29.5941 34.4218 29.5534 34.2738C29.2417 33.1403 29.3851 31.8162 29.3988 30.6488C29.4015 30.4196 29.454 30.4671 29.4937 30.6698C29.6821 31.6331 29.5885 32.6777 29.5885 33.6521C29.5885 34.4822 29.5936 35.3125 29.5885 36.1426C29.5883 36.1732 29.6002 36.8849 29.5253 36.5852" stroke="black" stroke-linecap="round" stroke-linejoin="round"/>
<path d="M27.6916 33.9928C27.5582 35.4105 27.6284 39.6882 27.6284 38.2642C27.6284 36.0957 27.6284 29.5903 27.6284 31.7588C27.6284 33.2664 27.5946 34.7693 27.5336 36.2761C27.4817 37.5563 27.4387 41.4002 27.4387 40.1189C27.4387 38.013 27.8508 36.0092 28.4223 33.9858C28.5916 33.3864 28.7301 32.6019 29.0756 32.0644C29.2462 31.799 29.293 32.3004 29.3039 32.3805C29.4949 33.781 29.6131 35.2002 29.7114 36.6098C29.7349 36.9469 29.8318 38.0783 29.6447 37.0488C29.3392 35.3689 29.2279 33.639 29.0862 31.9379C28.9305 30.0697 29.4764 35.6685 29.5744 37.5406C29.6395 38.7842 29.7782 42.5164 29.7782 41.2711C29.7782 39.5288 29.7782 37.7865 29.7782 36.0442C29.7782 35.7567 29.684 35.2518 29.7782 34.9693C29.8529 34.7452 29.8304 35.4394 29.8414 35.6754C29.907 37.0866 30.1191 38.532 30.0943 39.9433C30.092 40.073 29.9077 39.7522 29.8625 39.6306C29.6156 38.9666 29.4232 38.273 29.2372 37.5898C29.1271 37.1856 29.0725 36.7542 28.9281 36.3604C28.8244 36.0777 28.8301 36.4877 28.8297 36.55C28.8212 37.8426 28.9169 39.1617 28.7806 40.4491C28.5992 42.1621 28.5768 37.008 28.5768 35.2855C28.5768 35.0291 28.5768 34.7726 28.5768 34.5162C28.5768 34.4025 28.4772 34.1755 28.5909 34.1755C28.6861 34.1755 28.7348 35.1163 28.7384 35.152C28.8136 35.9037 28.8885 36.6561 28.9702 37.4071C29.0193 37.858 29.0826 39.2165 29.0826 38.763C29.0826 38.0969 29.0324 37.3833 28.7946 36.7538C28.7569 36.6539 28.7673 36.9668 28.7735 37.0734C28.8339 38.1003 28.9206 39.1342 29.0229 40.1575C29.089 40.818 29.1824 41.4788 29.3215 42.1281C29.3329 42.1815 29.4884 42.6688 29.448 42.3249C29.3961 41.884 28.8236 41.4813 28.5136 41.2008C28.4273 41.1227 28.3857 41.161 28.4012 41.2851C28.4595 41.7512 28.7812 42.2505 28.9702 42.6691C29.2447 43.2767 29.5122 43.9025 29.8695 44.4676C29.9085 44.5292 30.3889 45.0919 30.2243 44.9699C29.7707 44.6339 29.2721 44.2917 28.8719 43.8915C28.7835 43.8031 28.8876 43.7943 28.9632 43.7931C29.7207 43.7817 30.4775 43.826 31.2324 43.8845C32.2482 43.9631 33.2613 44.0635 34.2708 44.2006C34.4809 44.2291 35.0992 44.3813 34.8926 44.3341C34.28 44.1941 33.6563 43.6869 33.1363 43.3646C32.0253 42.6762 30.9035 42.0238 29.743 41.4221C29.7309 41.4158 29.1336 41.0632 29.4339 41.2992C30.1096 41.8301 30.7864 42.3596 31.4677 42.8834C32.3501 43.5617 33.2624 44.1744 34.1971 44.7767C34.5365 44.9954 35.5902 45.5301 35.1912 45.4687C35.0591 45.4484 34.9459 45.3623 34.8258 45.3036C34.2979 45.0451 33.7737 44.7799 33.2346 44.5449C32.2802 44.1286 31.294 43.7868 30.3051 43.463C30.1798 43.4219 29.4377 43.2193 29.455 43.2311C29.8033 43.4684 30.2284 43.6382 30.6001 43.8283C31.3469 44.2102 32.0867 44.6068 32.8412 44.9734C33.8178 45.448 36.9019 46.51 35.8691 46.1747C34.307 45.6675 32.802 45.0144 31.2324 44.5273C29.835 44.0936 34.0108 45.4574 35.4335 45.7989C36.131 45.9663 36.8353 46.1007 37.5482 46.1818C37.8908 46.2207 37.683 46.1919 37.4639 46.1256C36.0966 45.7118 34.7557 45.1626 33.4524 44.58C33.0688 44.4085 33.7113 44.4887 33.8107 44.4887C35.1192 44.4887 36.424 44.4392 37.7308 44.3762C38.7324 44.328 39.735 44.2601 40.7377 44.2393C40.7495 44.239 41.6232 44.2645 41.1873 44.1444C40.2907 43.8973 39.3382 43.7876 38.4228 43.6351C37.342 43.4549 36.2471 43.2577 35.149 43.2276C35.117 43.2267 34.4476 43.2203 34.8504 43.2241C35.7288 43.2324 36.5731 43.3824 37.4358 43.5437C38.3688 43.7182 39.3045 43.8671 40.2389 44.032C40.3944 44.0595 41.0537 44.1884 40.4777 44.1725C39.0733 44.1337 37.682 43.8217 36.2906 43.6526C35.1418 43.5131 33.9914 43.4207 32.8342 43.4138C32.7539 43.4133 32.1178 43.3576 32.5356 43.4946C33.7774 43.9017 35.0943 44.1231 36.3714 44.3868C37.6764 44.6562 39.0704 44.9945 40.4145 44.9945C41.1115 44.9945 39.0231 44.8983 38.3315 44.8118C37.8844 44.7559 37.4428 44.7416 36.9932 44.7416C36.6869 44.7416 36.8624 44.7396 37.0915 44.7451C38.3052 44.7743 39.504 44.9621 40.7025 45.142C41.6659 45.2866 42.6627 45.3198 43.618 45.5003C45.8387 45.9198 39.1056 45.1842 36.8456 45.1842C36.6173 45.1842 37.2971 45.2547 37.5201 45.3036C38.4304 45.5033 39.3378 45.7134 40.2494 45.9078C40.8323 46.0321 41.4123 46.1697 41.9952 46.2942C42.1267 46.3222 42.1448 46.3223 41.9776 46.3223C41.5784 46.3223 41.1791 46.3223 40.7798 46.3223C39.8607 46.3223 38.9415 46.3223 38.0224 46.3223C37.9468 46.3223 37.2895 46.3804 37.3023 46.3855C37.7721 46.5734 38.396 46.574 38.89 46.6384C39.6253 46.7343 40.3535 46.8281 41.0959 46.8281C41.4328 46.8281 41.3309 46.7985 41.0397 46.7368C40.3652 46.5937 39.6851 46.4584 39.0024 46.3609C38.6803 46.3149 38.3518 46.2676 38.0259 46.259C37.663 46.2495 38.7519 46.2629 39.1148 46.2731C40.5504 46.3134 41.983 46.4154 43.4178 46.4733C44.1871 46.5044 44.9807 46.4474 45.7467 46.526C45.9382 46.5456 45.3628 46.5757 45.1706 46.5646C44.239 46.5109 43.3233 46.2914 42.3991 46.1712C42.3376 46.1632 41.5922 46.135 41.5666 46.0202C41.56 45.9901 41.6272 46.0077 41.658 46.0061C41.8943 45.9941 42.1232 45.9664 42.357 45.9253C43.8167 45.6692 45.2695 45.3484 46.7232 45.0577" stroke="black" stroke-linecap="round" stroke-linejoin="round"/>
<path d="M41.8547 20.1459C43.229 20.0402 44.6405 20.029 46.0067 20.2232C46.7507 20.329 47.4556 20.5777 48.1916 20.7115C48.2103 20.7149 48.1536 20.7066 48.1354 20.7009C47.6283 20.5436 47.1449 20.239 46.6811 19.9914C44.7565 18.9638 42.8958 17.8467 41.0468 16.6895C40.5555 16.382 39.6053 15.9949 39.3116 15.4495C39.2549 15.3442 39.5516 15.41 39.6699 15.4284C40.4457 15.5491 41.2169 15.7615 41.9636 16.001C42.8114 16.2729 43.691 16.6311 44.4541 17.0969C44.5328 17.145 44.7808 17.2919 44.6368 17.3639" stroke="black" stroke-linecap="round" stroke-linejoin="round"/>
<path d="M43.8778 17.3007C44.8111 17.1762 45.6941 17.388 46.5966 17.6168C47.4604 17.8358 48.3454 17.9687 49.203 18.2069C49.5064 18.2912 49.3799 18.2704 49.1187 18.228C47.2048 17.9176 45.3926 16.9526 43.6109 16.2399C42.7148 15.8814 41.6931 15.454 40.7164 15.3511C40.6481 15.3439 40.8018 15.4611 40.8569 15.5022C41.4664 15.9566 42.0986 16.3803 42.7116 16.83C44.2548 17.9619 45.7653 19.137 47.3343 20.2337C47.6264 20.4379 47.9945 20.8308 48.3284 20.9644C48.6452 21.0911 47.6506 20.8594 47.3273 20.7501C46.4453 20.452 45.5481 20.0584 44.7279 19.6155C44.0224 19.2345 46.0478 19.4756 46.1119 19.4856C48.0434 19.7856 49.9162 20.4178 51.7954 20.9398C52.1188 21.0296 52.754 21.2818 52.0342 21.0487C51.1089 20.7489 50.2604 20.3037 49.3857 19.886C48.8692 19.6394 48.315 19.4539 47.8155 19.1729C47.7203 19.1194 48.0278 19.2312 48.1246 19.2818C48.8213 19.6463 49.4664 20.1097 50.1304 20.5288C50.7919 20.9463 51.4576 21.3577 52.1185 21.7758C52.1518 21.7968 52.2281 21.8682 52.1888 21.8706C51.8076 21.8945 51.1643 21.4458 50.8786 21.2911C48.9082 20.2238 47.0152 19.0117 45.0792 17.8838C44.7615 17.6987 44.4467 17.5096 44.1307 17.3218C44.0857 17.295 44.0347 17.2772 43.9938 17.2445C43.9744 17.229 44.044 17.2469 44.0675 17.255C44.3105 17.3388 44.5323 17.4908 44.749 17.6238C45.5033 18.087 46.2576 18.5504 47.0111 19.0149C48.6378 20.0174 50.26 21.017 51.8305 22.106C52.1209 22.3074 52.4103 22.5102 52.7016 22.7102C52.7037 22.7116 52.8865 22.8152 52.8421 22.8507C52.6372 23.0146 52.0221 22.3452 51.9078 22.2325C51.849 22.1745 51.4981 21.7253 51.5706 21.9163C51.9263 22.8542 52.3455 23.7624 52.6525 24.7194C52.8914 25.4645 53.0587 26.2429 53.3234 26.9781C53.4034 27.2002 52.9566 26.4389 52.9194 26.3633C52.6293 25.774 52.2239 24.9599 52.2239 24.2874C52.2239 24.0809 52.5007 24.3077 52.5541 24.3611C53.284 25.091 53.7593 26.0886 54.2613 26.9745C54.6108 27.5916 54.923 28.2562 55.3432 28.8292C55.4107 28.9213 55.1563 28.114 55.1184 28.0002C54.8641 27.2375 54.5918 26.4374 54.2472 25.71C54.0696 25.335 53.8871 24.9464 53.7414 24.5578C53.6167 24.2252 53.506 23.8785 53.4007 23.5392C53.2515 23.0585 53.841 24.0921 53.8749 24.1504C54.4458 25.1323 55.9288 28.1802 55.5855 27.0975C55.3449 26.3386 54.9424 25.5806 54.6055 24.8599C54.4823 24.5963 54.3581 24.1837 54.1699 23.9537C54.0256 23.7772 53.8348 23.6362 53.7414 23.4197C53.6535 23.2162 53.2439 22.623 53.3093 22.394C53.3855 22.1275 54.5731 23.3112 54.602 23.346C55.3223 24.2132 56.1791 25.2178 56.4602 26.3423C56.6033 26.9148 56.5329 27.5828 56.5234 28.1688C56.498 29.7341 55.6202 31.1811 54.9778 32.5632C54.7751 32.9994 54.5429 33.4177 54.3104 33.8383C54.1633 34.1046 54.184 33.6113 54.184 33.5573C54.184 31.8405 54.5658 30.2705 54.8795 28.5974C54.9537 28.2018 54.9615 28.2906 54.9357 28.6395C54.8437 29.8812 54.3492 31.1328 54.0575 32.3349C53.6065 34.1939 53.2211 36.0701 52.7473 37.9235C52.6793 38.1897 52.436 38.9528 52.4171 38.6787C52.261 36.4144 53.2866 34.2007 54.8584 32.6018C55.0395 32.4176 55.3191 32.0779 55.575 31.9836C55.6326 31.9624 55.633 32.0617 55.6347 32.0855C55.67 32.5617 55.6224 33.0708 55.5926 33.5432C55.4917 35.141 55.1817 36.7216 54.8163 38.2783C54.8033 38.3333 54.6174 39.3602 54.5317 39.3602C54.4659 39.3602 54.4513 38.2734 54.4509 38.2361C54.4415 37.0873 54.8759 36.0289 55.308 34.9834C55.3174 34.9607 55.6713 34.1572 55.7296 34.2071C55.8102 34.2763 55.6757 34.6267 55.6663 34.6532C55.4024 35.401 54.9841 36.0999 54.5423 36.7538C53.4419 38.3823 52.2071 39.948 50.8961 41.4116C50.1327 42.2639 49.2663 43.2902 48.1633 43.7159C48.1026 43.7393 47.6715 43.9531 47.6715 43.7791C47.6715 43.2625 48.3133 42.9185 48.6761 42.6797C49.3865 42.2122 50.1111 41.7499 50.9172 41.4678C50.9547 41.4547 51.2181 41.3398 51.0015 41.4467C50.5764 41.6564 50.1459 41.8516 49.7159 42.0509C48.0298 42.8324 46.097 43.7984 44.9176 45.2966C44.7554 45.5026 44.8758 45.5058 45.0792 45.4582C46.3513 45.1604 47.6251 44.8768 48.9009 44.5941C49.7921 44.3966 50.688 44.187 51.5916 44.0531C51.879 44.0105 51.0983 44.3635 50.8329 44.4816C49.1107 45.2484 47.3296 45.8676 45.592 46.5963C45.0957 46.8044 44.6065 47.0263 44.1343 47.2848C44.0519 47.3298 43.8126 47.4602 43.9059 47.4498C44.5914 47.3737 45.3191 47.1292 45.9784 46.9405C46.7461 46.7208 47.6225 46.5452 48.3178 46.1361C48.4002 46.0876 49.1152 45.7423 48.8447 45.5003C48.39 45.0935 47.6784 46.0221 47.3694 46.245C47.3202 46.2805 46.9777 46.4933 46.9971 46.4523C47.1741 46.076 47.5731 45.7165 47.8471 45.4301C48.9373 44.2904 50.0737 43.1953 51.1701 42.0614C52.2732 40.9206 53.3478 39.7486 54.458 38.6155C54.5623 38.5091 54.9035 38.2254 54.7741 38.2994C54.5872 38.4062 54.4537 38.6127 54.3456 38.7911C53.5848 40.0464 52.923 41.3584 52.2239 42.648C51.577 43.8414 50.9717 45.0519 50.3411 46.252C50.3349 46.2638 50.1055 46.7628 50.0777 46.5682C50.0292 46.229 50.1906 45.924 50.3692 45.6479C51.0828 44.5451 52.0112 43.5693 52.8351 42.5497C53.2195 42.0741 53.5886 41.5642 53.9205 41.0498C53.9975 40.9305 54.1113 40.5323 54.1208 40.6739C54.155 41.188 54.1208 42.7347 54.1208 42.2195C54.1208 41.651 54.3043 41.1257 54.5142 40.6037C54.9226 39.5877 55.3944 38.5978 55.7225 37.5512C55.9944 36.6842 56.2705 35.967 56.2705 35.0677C56.2705 34.7961 56.2705 34.5244 56.2705 34.2528C56.2705 34.2149 56.268 33.7478 56.3337 33.9366C56.534 34.5123 56.397 35.3157 56.397 35.9072C56.397 36.8311 56.397 37.7549 56.397 38.6787C56.397 38.865 56.4087 38.9509 56.3829 38.6928C56.3124 37.9877 56.3337 37.2789 56.3337 36.5711C56.3337 35.4589 56.4209 34.3981 56.6218 33.3044C56.7115 32.8159 56.8792 32.2752 56.9028 31.7799C56.9307 31.193 56.909 30.5965 56.9028 30.0095C56.9014 29.8757 56.8396 29.3767 56.8396 29.3983C56.8396 30.0487 56.8411 30.6981 56.8044 31.3478C56.7668 32.0144 56.7131 32.6785 56.7131 33.3465C56.7131 33.7529 56.7658 32.5353 56.8079 32.1311C56.936 30.9014 57.0292 29.6651 57.0292 28.4288C57.0292 28.0719 56.9737 27.7228 56.966 27.368C56.9574 26.9695 56.8719 27.5643 56.8255 27.6982C56.2416 29.3825 55.7479 31.1015 55.02 32.7353C54.6644 33.5336 54.3752 34.3415 54.0962 35.1696C53.9713 35.5401 53.8729 36.2118 53.622 36.5255C53.5759 36.5831 53.6149 36.378 53.6149 36.3042C53.6149 35.8639 53.6149 35.4237 53.6149 34.9834C53.6149 33.6076 53.6149 32.2318 53.6149 30.856C53.6149 30.426 53.7534 29.7294 53.4604 29.3632C53.2245 29.0683 52.8741 28.9028 52.6033 28.6466C52.4621 28.5131 52.3951 28.4333 52.3223 28.2461C52.2181 27.9782 52.6633 28.6195 52.6806 28.6466C53.1486 29.3805 53.5237 30.1685 53.9873 30.9052C54.0056 30.9343 54.3474 31.547 54.4474 31.527C54.5221 31.512 54.3937 31.3843 54.3596 31.3162C54.2746 31.1462 53.9056 30.4312 53.8749 30.3713C52.3669 27.4278 50.9683 24.4164 49.2382 21.5931C48.9903 21.1887 48.727 20.7466 48.3916 20.4024C48.3308 20.34 48.2132 20.1669 48.1808 20.2478C48.0948 20.4628 48.5979 21.2992 48.6656 21.4281C49.5292 23.071 50.5404 24.9609 52.0834 26.0753C52.2417 26.1896 52.5278 26.3864 52.2169 26.0823C51.0874 24.9777 49.8489 23.964 48.6621 22.9209C48.2788 22.5841 47.0412 21.7935 47.5451 21.8742C47.7452 21.9062 47.9514 22.0526 48.1211 22.1481C48.5772 22.4049 49.0355 22.655 49.4981 22.8999C49.8618 23.0924 50.3365 23.2592 50.6573 23.5216C50.8577 23.6856 50.1397 23.5591 49.881 23.5497C48.6742 23.5058 47.4721 23.382 46.2664 23.3179C44.6897 23.234 39.9611 23.3497 41.5314 23.1844C42.6477 23.0669 43.8339 23.1809 44.9527 23.1809C46.051 23.1809 47.1493 23.1809 48.2476 23.1809C48.969 23.1809 46.8038 23.1798 46.0838 23.1352C44.7176 23.0506 43.3664 22.8028 42.0021 22.6891C41.9524 22.685 41.4992 22.6941 41.7597 22.5732C42.5483 22.207 43.5022 22.0904 44.3415 21.8952C44.6829 21.8158 45.7177 21.6634 45.3672 21.6634C44.6674 21.6634 43.966 21.6493 43.2666 21.6775C42.7257 21.6992 42.1889 21.7266 41.6473 21.7266C41.5556 21.7266 41.456 21.7178 41.6473 21.695C42.0603 21.6458 42.4827 21.6502 42.8978 21.6318C43.568 21.6021 44.2396 21.59 44.9106 21.6002C45.3859 21.6074 44.6431 21.7514 44.5628 21.7618C43.6483 21.8801 42.7352 21.9738 41.8124 21.9795C41.6273 21.9807 41.0963 22.0565 41.2574 21.9655C41.6578 21.7392 42.3486 21.6945 42.7819 21.6002C44.1835 21.2952 45.6031 21.0707 47.0322 20.9433C47.2629 20.9227 47.4958 20.9047 47.7277 20.9047C47.9052 20.9047 47.3772 20.9621 47.2008 20.9819C45.7515 21.145 44.3025 21.3129 42.8521 21.4667C42.5371 21.5001 42.221 21.5369 41.9037 21.5369C41.8964 21.5369 41.7853 21.5273 41.8019 21.5686C41.8184 21.61 41.92 21.5978 41.9459 21.6002C42.3474 21.6372 42.7406 21.7708 43.1191 21.9023C43.4238 22.0081 43.7223 22.1282 44.0289 22.2289C44.0488 22.2355 44.7604 22.4719 44.6506 22.5451C44.323 22.7635 43.4336 22.7377 43.098 22.7804C41.9498 22.9266 40.8086 23.1176 39.6626 23.2792C38.8698 23.3911 36.5756 23.9237 37.274 23.5321C37.5551 23.3746 37.9079 23.2861 38.2084 23.1879C39.2412 22.8502 40.2799 22.5294 41.3312 22.2535C42.3678 21.9815 43.4368 21.6858 44.5031 21.551C44.9344 21.4965 44.4895 21.5915 44.3169 21.5967C43.4774 21.6217 42.6168 21.6282 41.7843 21.5053C40.9138 21.3769 42.2804 21.1911 42.4798 21.1716C43.5973 21.0624 44.7271 21.0943 45.8484 21.0943C45.9013 21.0943 46.5855 21.0227 46.5334 21.2208C46.4503 21.5365 45.2103 21.5323 44.9527 21.5369C44.8751 21.5384 44.6561 21.5007 44.5804 21.544C44.5352 21.5698 44.6675 21.6011 44.7138 21.6248C44.9379 21.7392 44.9984 21.7712 45.2407 21.9093C45.9833 22.3326 46.6937 22.8228 47.4608 23.2019C47.7245 23.3323 47.6176 23.1644 47.4783 23.086C47.353 23.0156 47.2176 22.9856 47.0779 22.9561C46.3986 22.8124 45.7091 22.7107 45.023 22.6083C41.2687 22.048 37.4803 22.0332 33.6911 22.113C33.283 22.1216 32.8245 22.1086 32.4266 22.2325C32.3443 22.2581 32.1541 22.3841 32.2369 22.4081C32.3953 22.454 32.5923 22.442 32.7532 22.4678C33.2861 22.5533 33.7975 22.7232 34.3093 22.8893C34.8474 23.064 35.4136 23.133 35.9462 23.3073C36.0851 23.3528 36.1486 23.4415 36.0516 23.5708C35.7752 23.9394 35.3719 24.226 35.0751 24.5859C34.9303 24.7615 34.7869 24.9375 34.6606 25.1269C34.6092 25.204 34.785 24.9882 34.8573 24.9302C35.3153 24.5632 35.8341 24.318 36.3432 24.038C36.6681 23.8593 36.0193 23.9851 35.9743 23.9958C34.93 24.2445 33.9903 24.8461 33.0342 25.3131C32.9707 25.3441 32.0714 25.7815 32.0577 25.6994C32.0425 25.6078 32.0968 25.5032 32.1526 25.436C32.658 24.8271 33.4332 24.397 34.0775 23.9607C34.9763 23.352 35.8442 22.6977 36.7436 22.0919C37.3018 21.716 37.8249 21.9116 38.4683 21.9163C39.0326 21.9204 39.5971 21.9163 40.1614 21.9163C40.3428 21.9163 40.7438 21.9689 40.9061 21.839C41.0228 21.7457 39.5902 21.1999 39.5186 21.1716C39.0329 20.9796 38.5538 20.7702 38.0819 20.5464C37.9196 20.4694 37.5908 20.359 37.4567 20.2092C37.442 20.1928 38.3698 20.0598 38.4508 20.0511C39.1234 19.979 39.7969 19.9062 40.4706 19.8438C40.4809 19.8429 40.9942 19.7995 40.9553 19.7314C40.8809 19.6013 40.5045 19.5435 40.3687 19.4785C40.0849 19.3428 39.7943 18.9371 39.6451 18.6636C39.547 18.4838 39.9761 18.5652 40.0631 18.5652C40.7865 18.5652 41.5187 18.5323 42.2409 18.5793C42.3036 18.5834 43.0676 18.6715 42.6589 18.6882C41.9693 18.7163 41.2872 18.7495 40.604 18.8603C38.7447 19.1618 36.9159 19.7044 35.0962 20.1775C34.7321 20.2722 34.3725 20.3668 34.1688 20.6869C33.8031 21.2617 33.151 21.6766 32.683 22.1692C32.6245 22.2308 31.9969 22.9055 31.9418 22.8366C31.8076 22.6688 32.063 22.2542 32.1596 22.1376C32.6108 21.593 33.1998 21.1599 33.6209 20.5885C33.7802 20.3723 33.9372 20.1991 34.0916 19.9914C34.2485 19.7801 34.4354 19.4444 34.6711 19.3029C35.5715 18.7627 33.02 20.6006 32.2053 21.263C31.4709 21.8599 30.6547 22.4578 30.1082 23.2441C29.7268 23.7929 29.4598 24.4063 29.223 25.0285C29.0495 25.4845 28.8928 26.0445 28.8928 26.5319C28.8928 27.1115 28.7332 27.7081 28.7067 28.2918C28.6959 28.529 28.6259 28.7632 28.7453 28.4218C28.9541 27.8244 29.4178 27.3058 29.8342 26.8481C30.7471 25.8448 31.7813 24.973 32.834 24.1223C33.8144 23.33 34.7951 22.5388 35.7706 21.7407C35.9816 21.568 35.7673 21.7709 35.7074 21.832C34.6899 22.8691 34.0102 24.2349 33.389 25.5273C31.907 28.611 30.7091 31.9214 29.9501 35.2609C29.8657 35.6322 29.7751 36.0025 29.6937 36.3744C29.6865 36.4076 29.5541 36.8724 29.6586 36.5149C30.0654 35.1232 31.1085 33.875 31.984 32.7494C32.4826 32.1082 32.9921 31.4219 33.5436 30.8244C33.6185 30.7433 33.6217 30.6683 33.5717 30.7682" stroke="black" stroke-linecap="round" stroke-linejoin="round"/>
<path d="M32.75 28.3656C32.75 29.8257 32.75 31.2858 32.75 32.7459C32.75 32.9064 32.75 34.238 32.75 33.4098C32.75 31.3154 32.7053 29.2506 33.1223 27.1888C33.1633 26.986 33.1725 26.9552 33.2172 26.7814C33.2307 26.7288 33.2174 26.5849 33.2558 26.6233C33.316 26.6835 33.2025 26.9996 33.1855 27.0554C32.7274 28.5605 32.2918 30.0935 31.9666 31.6324C31.7299 32.753 31.5272 33.8936 31.4011 35.0326C31.3873 35.1574 31.4312 35.9778 31.2957 36.0794C31.2507 36.1131 31.267 35.9702 31.2606 35.9143C31.2105 35.4775 31.1948 35.0362 31.1833 34.597C31.1581 33.6374 31.1693 32.6766 31.1693 31.7167C31.1693 31.305 31.1592 30.8918 31.1693 30.4802C31.1724 30.3533 31.22 30.4176 31.2325 30.5083C31.4737 32.2573 31.687 34.0102 31.9245 35.7597C32.046 36.6549 32.3942 39.325 32.4303 38.4223C32.5256 36.0391 32.3355 33.6345 32.1528 31.26C32.1296 30.9582 32.1649 30.4128 32.0053 30.1289C31.9879 30.098 31.9916 30.1989 31.9912 30.2343C31.986 30.7868 31.9912 31.3398 31.9912 31.8923C31.9912 34.2832 31.9912 36.6742 31.9912 39.0651C31.9912 39.1095 32.0126 39.5216 31.914 39.2548C31.711 38.7062 31.6174 38.1106 31.5205 37.5371C31.4091 36.8771 31.2889 36.2285 31.1201 35.5806C31.06 35.3501 31.0254 35.0004 30.8847 34.7973C30.7891 34.6591 30.7892 35.1245 30.7899 35.2925C30.7947 36.4347 30.8736 37.5744 30.9445 38.7139C30.9932 39.4975 31.1265 41.8481 31.0428 41.0674C30.9583 40.2787 30.6615 39.4384 30.4597 38.6717C30.3885 38.4011 30.0777 37.724 30.263 38.4258C30.4748 39.2279 30.8964 39.9907 31.2536 40.7337C31.6034 41.4612 31.9487 42.1933 32.3987 42.8658C32.9207 43.646 32.7453 42.6366 32.6657 42.2195C32.438 41.0268 32.1541 39.794 31.7383 38.6507C31.7099 38.5725 32.1792 39.0425 32.2231 39.0792C32.9423 39.6814 33.6912 40.255 34.4641 40.7864C35.1084 41.2293 35.7673 41.654 36.4629 42.0123C36.5779 42.0715 37.1636 42.3826 36.656 42.1914C35.013 41.5725 33.4607 40.7693 31.7735 40.2665C31.6079 40.2171 31.1466 40.0314 31.5557 40.3016C32.0832 40.65 32.6619 40.9286 33.2136 41.236C33.6965 41.505 34.1755 41.793 34.6854 42.0088C34.8059 42.0597 35.093 42.248 35.0613 42.1212C34.988 41.8279 34.2205 41.4521 34.018 41.3203C33.3844 40.9077 32.7168 40.541 32.0053 40.2805C31.9616 40.2645 31.3082 40.0583 31.503 40.1084C32.3846 40.3351 33.2302 40.6884 34.0707 41.0322C35.6993 41.6985 37.3164 42.3925 38.9463 43.0555C39.3504 43.2199 39.8033 43.4542 40.2319 43.5614C41.6107 43.9061 37.6637 42.3279 36.3188 41.8683C35.2602 41.5064 34.1916 41.172 33.1364 40.8004C33.0193 40.7592 32.7105 40.5921 32.8343 40.5826C33.3383 40.5438 33.9201 40.7535 34.3939 40.8777C35.7564 41.2348 37.108 41.6206 38.4791 41.9455C39.2399 42.1258 39.9985 42.3353 40.7659 42.4865C40.852 42.5035 41.0761 42.6005 41.0258 42.5286C41.0045 42.4981 40.9581 42.4978 40.9239 42.483C40.6068 42.3455 40.2896 42.2083 39.972 42.072C36.7411 40.6851 33.4022 39.6949 30.0241 38.749C29.6774 38.6519 29.3411 38.5688 29.9188 38.6366C31.0222 38.7661 32.1045 39.062 33.1855 39.3075C34.6319 39.636 36.0764 39.9689 37.5202 40.3086C38.0869 40.442 37.9031 40.3959 38.3983 40.5053C38.5753 40.5444 39.0023 40.7904 38.9287 40.6248C38.8468 40.4405 38.5907 40.4045 38.4194 40.2981C37.3123 39.6102 36.2148 38.9084 35.1245 38.194C33.6061 37.199 32.1096 36.1913 30.5194 35.3136C30.0996 35.0819 30.0586 35.0589 29.6834 34.85C29.5702 34.7869 29.2344 34.682 29.3567 34.6392C29.7278 34.5093 30.7875 35.2649 31.0323 35.3909C33.4855 36.6543 35.9615 37.9434 38.4967 39.037C38.554 39.0618 38.7129 39.155 38.6688 39.1108C38.4215 38.8635 37.9932 38.5924 37.7379 38.3907C36.2451 37.211 34.7411 36.0547 33.1293 35.0396C32.2939 34.5135 31.4176 33.96 30.4808 33.6275C30.1514 33.5107 30.5655 33.9213 30.6108 33.9753C31.6932 35.2666 32.9534 36.4324 34.2745 37.4774C34.4174 37.5905 34.7525 37.9125 34.7592 37.7303C34.7637 37.6096 34.6811 37.337 34.6609 37.2667C34.4244 36.4472 34.1633 35.6355 33.9302 34.8148C33.4208 33.0209 32.9465 31.2174 32.3566 29.4475C32.1528 28.8364 31.9259 28.2301 31.7489 27.6104C31.3502 26.2151 32.4812 30.4198 32.9151 31.8045C33.2541 32.8867 33.641 33.9548 34.0145 35.0256C34.0971 35.2622 34.5176 35.9753 34.4606 36.241C34.438 36.3466 33.4869 35.5244 33.3612 35.5244C33.1911 35.5244 33.7708 37.1207 33.8108 37.2245C33.9512 37.5892 34.0964 37.9494 34.1972 38.3275C34.2771 38.627 34.0295 38.0761 34.0286 38.0746C33.2722 36.8408 32.7799 35.4497 31.9702 34.2528C31.938 34.2053 31.8394 34.0003 31.8753 34.1861C31.9899 34.7778 32.3046 35.3443 32.5462 35.8897C33.0852 37.1064 33.6574 38.3394 34.4923 39.3883C34.6821 39.6268 34.6245 39.2192 34.6011 39.1143C34.3893 38.1608 33.8895 37.2771 33.4455 36.4166C33.2034 35.9474 32.9708 35.4698 32.6727 35.0326C32.6024 34.9296 32.8052 35.2446 32.8835 35.3417C33.6996 36.3541 34.6896 37.2301 35.6444 38.1062C36.8961 39.2547 38.1848 40.347 39.5575 41.3484C39.9693 41.6488 40.4039 41.9089 40.8221 42.1984C41.0491 42.3556 40.7963 42.0661 40.7518 42.0228C39.9993 41.2904 39.051 40.8085 38.1384 40.3157C38.1133 40.3021 37.6099 39.9998 37.8433 40.1822C38.4305 40.6409 38.9977 41.1292 39.6067 41.5591C40.7061 42.3354 41.9038 43.0492 43.1545 43.5543C43.1733 43.5619 43.8752 43.8575 43.5619 43.5684C42.2493 42.3567 40.578 41.4568 39.0411 40.5791C37.4575 39.6747 35.8382 38.8647 34.1831 38.1027C33.955 37.9976 33.4665 37.7696 33.2136 37.6601C33.1155 37.6176 32.8116 37.5336 32.9186 37.5336C33.5883 37.5336 34.2581 37.5336 34.9278 37.5336C38.2907 37.5336 48.379 37.4704 45.0162 37.4704" stroke="black" stroke-linecap="round" stroke-linejoin="round"/>
<path d="M39.7682 38.6085C41.644 38.6085 47.2713 38.6085 45.3955 38.6085C41.7128 38.6085 30.6655 38.482 34.3482 38.482C34.9164 38.482 35.487 38.6359 36.0342 38.7665C37.4714 39.1096 38.8962 39.4945 40.3443 39.7922C42.0696 40.147 43.807 40.3308 45.543 40.6001C46.4545 40.7416 44.5959 40.695 44.5876 40.695C42.3938 40.695 40.181 40.6829 38.0154 40.291C35.3491 39.8086 43.4025 41.0111 46.1121 41.0111C46.4049 41.0111 46.3328 40.9815 46.0664 40.8917C45.1076 40.5684 44.1187 40.3272 43.1333 40.1013C41.4496 39.7154 39.7785 39.5244 38.0716 39.311C37.7578 39.2718 38.6951 39.2041 39.006 39.1459C40.5504 38.8568 42.0933 38.5598 43.6392 38.2783C45.1932 37.9953 46.7503 37.7378 48.2899 37.3825C48.49 37.3364 47.8806 37.3429 47.6752 37.3404C46.256 37.3229 44.838 37.2652 43.4214 37.1788C42.0711 37.0964 40.7236 36.9793 39.3748 36.8767C38.9464 36.8442 38.4934 36.842 38.0716 36.7468C37.7931 36.6839 38.6369 36.6628 38.9217 36.6414C40.1198 36.5512 41.3184 36.4684 42.5151 36.3604C43.988 36.2274 45.4633 36.0161 46.9446 36.0161C47.9656 36.0161 44.9036 36.1602 43.8991 36.3428C43.1517 36.4787 42.3919 36.6724 41.6861 36.9575C41.4397 37.0571 41.1373 37.1868 40.959 37.3966C40.9043 37.461 40.8838 37.5236 40.9836 37.5301C41.5263 37.5651 42.0891 37.538 42.631 37.523C44.9456 37.4593 47.2448 37.1625 49.5404 36.8802C49.7698 36.852 50.038 36.843 50.264 36.7784C50.5778 36.6887 49.6182 36.8787 49.3016 36.9575C46.4623 37.6639 43.6203 38.5448 40.8677 39.5393C40.8375 39.5502 39.6704 39.9625 39.993 39.9398C40.9451 39.8727 41.9072 39.6361 42.8418 39.4585C44.6032 39.1239 46.4418 38.8579 48.16 38.331C48.6905 38.1683 48.703 38.1026 48.1213 38.1026C45.8525 38.1026 43.5952 38.4385 41.4016 39.0124C40.8786 39.1492 40.3485 39.292 39.842 39.4831C39.7883 39.5034 39.4306 39.6417 39.7542 39.5955C41.6858 39.3196 43.5843 38.9608 45.543 38.9281C45.9027 38.9221 46.2688 38.9092 46.6284 38.9281C46.7939 38.9368 46.7853 38.9764 46.6355 39.037C44.4873 39.9054 42.1887 40.357 40.0211 41.1727C39.8772 41.2269 38.5076 41.6968 38.5669 42.0228C38.6391 42.4201 40.4202 42.5431 40.6674 42.5778C41.5813 42.7057 42.4872 42.7183 43.4073 42.7183C43.6866 42.7183 42.8487 42.7421 42.5713 42.7745C41.7201 42.874 40.877 43.0382 40.0352 43.196C39.6191 43.274 39.1823 43.3331 38.7776 43.463C38.5577 43.5335 39.2352 43.5389 39.4661 43.5402C42.0764 43.555 44.6814 43.6156 47.2712 43.9688C47.7187 44.0298 48.1969 44.0726 48.6271 44.2217C48.664 44.2345 48.763 44.2745 48.7255 44.2849C48.572 44.3276 48.4071 44.3002 48.2478 44.299C45.7326 44.2801 43.2154 43.9404 40.7166 43.6807C39.9245 43.5984 37.5471 43.3755 38.335 43.4911C39.8283 43.7101 41.3092 44.0523 42.761 44.4606C43.134 44.5655 43.5093 44.6489 43.885 44.7416C43.9564 44.7592 44.1156 44.8491 44.1028 44.7767C44.0542 44.5011 42.9866 44.381 42.7821 44.3271C42.703 44.3062 41.9665 44.1867 42.213 43.9196C42.4434 43.6701 42.985 43.5609 43.2809 43.463C44.0673 43.2026 44.8702 42.9977 45.6695 42.7815C46.287 42.6145 46.9126 42.4636 47.5242 42.2757C47.6011 42.252 48.1135 42.126 48.1354 41.9876C48.1446 41.9291 48.019 41.9605 47.9597 41.9595C47.6975 41.9554 47.4352 41.9595 47.1729 41.9595C46.4025 41.9595 45.632 41.9595 44.8616 41.9595C44.3885 41.9595 43.9155 41.9595 43.4424 41.9595C43.4181 41.9595 43.0403 41.9893 43.2879 41.9174C44.4185 41.5891 45.5988 41.4098 46.7444 41.1376C47.0952 41.0542 47.4593 40.9874 47.8052 40.8847C48.1134 40.7932 47.1642 40.8214 46.8427 40.8214C44.7872 40.8214 42.7358 40.9359 40.6815 40.9479C40.679 40.9479 40.1414 41.0023 40.4497 40.9057C41.1118 40.6984 41.7751 40.4973 42.4449 40.3156C44.2414 39.8282 46.0523 39.3255 47.9106 39.1424C47.9579 39.1377 48.5056 39.0481 48.5639 39.1283C48.6041 39.1836 48.4406 39.1898 48.3742 39.2056C48.1094 39.2686 47.7621 39.3215 47.5031 39.3531C45.9631 39.5412 44.4022 39.5679 42.8523 39.5569C42.5186 39.5545 42.6018 39.5259 42.8804 39.4656C43.5574 39.3189 44.2454 39.2285 44.9248 39.0932C46.679 38.744 48.4269 38.3606 50.1797 38.0043C50.2482 37.9904 50.7927 37.9523 50.8261 37.8357C50.8614 37.7122 50.3486 37.5529 50.2992 37.5336C49.8977 37.3765 49.0947 37.2117 48.8238 36.8381C48.5963 36.5243 48.7731 35.936 48.9644 35.6578C48.9837 35.6296 49.4484 34.9439 49.5545 35.0817C49.7302 35.3102 49.4687 36.0488 49.3648 36.269C49.3326 36.3372 49.0319 36.9748 49.1681 36.5992C49.4 35.9597 49.8548 35.4232 50.2254 34.8605C50.5716 34.3347 50.5072 34.703 50.3027 35.1028C49.9005 35.8889 49.521 36.7044 49.0451 37.4493C49.0126 37.5002 48.9363 37.7091 48.9363 37.5476C48.9363 36.9951 49.0464 36.4683 49.2032 35.9388C49.75 34.0922 50.5387 32.3224 51.0122 30.4521C51.0714 30.2183 51.2125 29.5217 51.2125 30.1675C51.2125 31.5752 50.7775 33.0212 50.3694 34.3581C50.3065 34.5641 50.2491 34.9181 50.1095 35.0958C49.9849 35.2544 49.9943 34.7065 49.976 34.5057C49.7913 32.4734 49.7009 30.4375 49.3859 28.4182C49.3378 28.1101 49.3213 27.4883 49.0311 27.2626C48.9757 27.2195 48.924 27.2165 48.9784 27.3117C49.2485 27.7844 49.6018 28.2226 49.9093 28.6711C50.2482 29.1656 50.5953 29.6539 50.942 30.1429C51.0839 30.3431 51.2283 30.6133 51.4197 30.7752C51.6493 30.9695 51.2308 30.2029 51.1071 29.9287C50.664 28.9467 50.1904 27.9786 49.7125 27.0132C49.412 26.4059 49.1209 25.7902 48.7676 25.2112C48.7593 25.1974 48.5653 24.8999 48.5674 24.9126C48.6015 25.1171 48.765 25.3258 48.8625 25.4992C49.1115 25.9418 49.3493 26.3916 49.5791 26.8446C49.6272 26.9394 49.9113 27.5976 49.8741 27.5857C48.2226 27.0572 46.6775 26.029 45.1426 25.2428C44.5941 24.9618 44.0261 24.7145 43.4916 24.4068C43.4105 24.36 43.2083 24.1995 43.3019 24.1995C43.5792 24.1995 43.8544 24.3239 44.0993 24.4384C44.7167 24.7269 45.3072 25.0738 45.9083 25.3938C46.8656 25.9036 47.8372 26.3259 48.8484 26.7111C48.9092 26.7342 49.0951 26.7882 49.0381 26.7567C48.5081 26.4643 47.969 26.1875 47.4328 25.9067C46.5396 25.4388 45.6807 24.9292 44.8475 24.3611C44.6284 24.2117 45.3786 24.2724 45.6414 24.3084C46.9491 24.4877 48.1888 25.0502 49.3894 25.5765C49.5989 25.6683 50.3356 26.0112 49.6353 25.8751C48.8066 25.7139 47.8403 25.3993 47.1272 24.9302C46.9065 24.7849 46.8236 24.5904 47.1624 24.5754C48.1533 24.5313 49.0005 24.8743 49.8214 25.4114C49.8792 25.4492 50.9076 26.1579 50.682 26.2369C50.2271 26.3961 49.7411 25.7288 49.5158 25.436C49.1871 25.0087 49.061 24.9512 48.4972 24.9512C48.1487 24.9512 48.4215 24.9828 48.6412 25.2182C49.9644 26.6359 50.7561 28.6727 51.4513 30.4521C51.7771 31.2859 51.9982 32.1852 52.3997 32.9882C52.4734 33.1356 52.2699 32.6851 52.2101 32.5316C52.0073 32.0113 51.8723 31.4693 51.7323 30.9298C51.5411 30.1927 51.4021 29.4863 51.4021 28.7238C51.4021 27.9922 51.4905 30.1845 51.5145 30.9157C51.5372 31.6062 51.5286 33.679 51.5286 32.9882C51.5286 31.349 51.5286 29.7097 51.5286 28.0705C51.5286 27.5667 51.4624 26.0697 51.5778 26.56C51.7239 27.1809 51.6529 27.9471 51.6551 28.5763C51.66 30.0091 51.6977 31.4508 51.641 32.8828C51.6325 33.0968 51.615 33.733 51.5778 33.5221C51.4929 33.0409 51.5253 32.5109 51.5286 32.0257C51.5347 31.1317 51.6183 30.1338 51.9571 29.2929C51.982 29.2311 52.0449 29.0842 52.0836 29.1383C52.1933 29.2919 52.1439 29.8804 52.1468 30.0024C52.2229 33.2184 51.7042 42.847 51.5426 39.6342C51.4582 37.9549 51.642 36.3164 51.9009 34.6602C51.9741 34.1925 52.0281 33.7231 52.0976 33.2552C52.1587 32.8439 51.9848 33.3769 51.9501 33.4589C50.8666 36.0222 49.6262 38.5025 48.3391 40.969C48.0098 41.6 47.6905 42.2391 47.3275 42.8518C47.2954 42.9058 47.1695 43.1887 47.1659 42.9782C47.1469 41.8758 47.6276 40.9116 48.1354 39.9573C48.3187 39.6128 48.5006 39.2564 48.7185 38.9316C48.7645 38.8631 48.9036 38.6981 48.8449 38.9035C48.6548 39.5689 48.2534 40.2035 47.9246 40.8074C47.8112 41.0156 47.5346 41.5919 47.756 40.9549C48.1275 39.8859 48.8287 39.0259 49.5123 38.1448C49.5202 38.1346 49.7928 37.7157 49.8566 37.7795C49.9604 37.8833 49.8027 38.3326 49.7793 38.4258C49.5612 39.2932 49.3398 40.1603 49.14 41.0322C49.0354 41.4885 49.2868 40.0902 49.5053 39.6763C49.5456 39.5999 50.1683 38.4907 50.3132 38.6225C50.5373 38.8262 49.8153 39.9346 49.7301 40.0908C49.2549 40.9621 48.7621 41.8392 48.2056 42.6621C48.1575 42.7332 47.8936 43.1621 47.7981 42.9712" stroke="black" stroke-linecap="round" stroke-linejoin="round"/>
<path d="M35.2208 25.7118C35.2208 26.4096 35.2208 27.1074 35.2208 27.8052C35.2208 28.4761 35.2208 26.4633 35.2208 25.7923C35.2208 24.9514 35.2208 24.1104 35.2208 23.2695C35.2208 22.5628 35.2208 24.683 35.2208 25.3897C35.2208 28.6222 35.2208 31.8548 35.2208 35.0873C35.2208 36.0535 35.0989 33.1519 34.8988 32.2066C34.5523 30.5706 34.1736 28.7353 33.2974 27.2863C33.2058 27.1347 32.6247 26.0444 32.6712 26.8122C32.7741 28.51 33.9318 30.3731 34.6662 31.8488C35.2787 33.0797 35.9859 34.2526 36.6343 35.463C37.1513 36.428 36.7085 34.8331 36.5896 34.5952C35.2769 31.9699 31.2712 24.128 32.6265 26.7316C33.8847 29.1487 35.3852 31.4749 36.8311 33.7811C37.3803 34.657 38.1641 36.5101 39.0855 37.1091C40.5943 38.0898 37.2979 33.9156 35.9723 32.6987C35.8562 32.592 34.1816 31.2222 34.6393 31.7504C35.8603 33.1592 36.9815 34.6364 38.2983 35.964C38.3282 35.9942 39.5522 37.271 39.6939 37.1091C39.8532 36.927 37.42 35.2644 37.2605 35.1588C37.0527 35.0212 34.6961 33.7141 34.7199 33.477C34.7261 33.4146 39.1787 33.9038 39.4255 33.9332C41.3577 34.1639 43.3024 34.268 45.2315 34.4968C45.4297 34.5204 47.0412 34.817 45.9561 34.6937C44.5967 34.5392 43.2968 34.2463 41.9215 34.2463C41.4115 34.2463 39.8817 34.2463 40.3917 34.2463C41.2242 34.2463 42.0352 34.2923 42.8608 34.4074C43.2919 34.4674 44.9627 34.4871 45.2315 34.971C45.3579 35.1985 44.7473 35.1804 44.489 35.2125C42.6549 35.4404 40.8116 35.581 38.9782 35.8209C37.9336 35.9575 36.8919 36.1151 35.8471 36.2503C35.6231 36.2793 34.4112 36.2833 34.2457 36.5813C34.1815 36.6969 36.8763 37.2067 36.9832 37.2254C39.0038 37.5776 41.1105 37.789 43.165 37.789C45.3177 37.789 38.8676 37.4669 36.7148 37.4669C36.517 37.4669 35.4946 37.462 35.525 37.458C37.6613 37.1731 39.7666 36.8791 41.8409 36.2682C43.7454 35.7073 46.1367 35.1813 47.799 34.0227C48.2242 33.7264 48.3575 33.3004 48.2284 32.7971C48.0754 32.2001 47.622 31.7048 47.3696 31.151C47.3067 31.013 46.7873 29.6121 46.8239 30.0327C46.9294 31.2462 47.2981 34.8739 47.2981 33.6559C47.2981 31.9711 47.2981 30.2862 47.2981 28.6014C47.2981 27.6978 47.3049 30.4085 47.2981 31.312C47.2927 32.0154 47.4215 33.457 46.8865 34.0406C46.4672 34.498 46.3412 31.9318 46.3408 31.9114C46.3056 30.1142 46.3319 28.3146 46.3319 26.5169C46.3319 26.1155 46.3319 25.1324 46.3319 26.1949C46.3319 27.7694 46.3319 29.3439 46.3319 30.9184C46.3319 31.4582 46.3319 31.9979 46.3319 32.5376C46.3319 33.489 46.3149 30.6337 46.3677 29.6838C46.3856 29.3616 46.3618 27.6599 46.8865 27.5099C46.9664 27.4871 47.1265 29.2375 47.137 29.326C47.3153 30.8259 47.4508 32.3156 47.7454 33.799C47.7854 34.0005 48.3083 36.478 48.4968 35.293C48.8654 32.9762 50.2023 26.1615 50.3487 28.503C50.443 30.0125 50.4332 31.6075 50.3576 33.1191C50.3347 33.5769 49.6416 32.5642 49.5525 32.475" stroke="black" stroke-linecap="round" stroke-linejoin="round"/>
<path d="M32.9663 29.7375C34.7268 28.4171 36.5362 27.0532 38.6739 26.4096C40.0271 26.0021 41.5304 26.0338 42.9322 26.0338C43.3547 26.0338 43.8856 25.9505 44.3009 26.0428C45.9524 26.4098 40.8999 25.944 39.2464 25.5865C37.2111 25.1465 35.2387 25.0194 33.1631 25.0677C32.466 25.0839 31.4118 25.3899 31.2128 26.1859C31.0343 26.8999 33.0161 25.4104 33.2167 25.3181C36.4534 23.8306 40.3543 22.5623 43.9431 22.348C44.044 22.342 47.2281 22.0887 46.457 23.1353C46.2351 23.4363 45.5735 23.521 45.2582 23.5826C43.8886 23.8503 42.482 23.8744 41.1072 24.1194C38.9496 24.5039 36.6264 25.2325 34.6481 26.1949C34.115 26.4542 33.7877 26.8164 33.4493 27.2863C33.3346 27.4457 33.2547 27.4096 33.4315 27.2505C34.2347 26.5276 35.3562 26.024 36.3121 25.5507C36.7055 25.356 43.7638 22.4809 44.0684 23.5468C44.1726 23.9117 43.0934 24.0543 42.9054 24.1194C40.1701 25.0662 37.8047 26.5538 35.6322 28.4672C33.7201 30.1512 32.6402 32.1425 31.1413 34.1211C30.515 34.9478 30.273 34.3914 30.7297 33.6917C31.7555 32.1204 34.0823 31.3744 35.6859 30.6142C37.0204 29.9816 38.309 29.3486 39.7027 28.8608C39.8642 28.8043 40.6367 28.665 40.0337 28.8429C38.1925 29.3862 35.9401 29.7911 34.2992 30.7842C33.8085 31.0812 33.4658 31.4581 33.2167 31.9561C33.0824 32.2248 33.434 31.3936 33.5835 31.1331C34.2825 29.9156 35.1944 28.7535 36.1153 27.6978C36.4756 27.2848 37.8206 25.5686 38.5039 25.5686C38.5751 25.5686 38.3653 25.8816 38.3607 25.8907C38.0692 26.4737 37.8201 27.0991 37.5645 27.6978C36.4139 30.3937 35.4749 33.3352 35.006 36.2324C34.9597 36.518 34.8986 38.3111 34.8986 37.0196C34.8986 34.8606 33.9911 32.7978 33.4851 30.7216C33.2845 29.8984 32.9386 28.931 33.7177 30.2743C34.6794 31.9324 35.4765 33.6746 36.5626 35.2572C37.3825 36.452 37.3356 36.1246 37.3141 34.8189C37.2901 33.3706 36.8669 32.0779 36.3479 30.7395C36.0814 30.0523 36.1392 30.4729 36.2047 30.981C36.395 32.4556 37.0877 33.8542 37.5377 35.2572C37.5981 35.4454 38.3105 37.462 38.2802 36.5544C38.2117 34.4995 35.1648 28.9764 36.2226 30.7395C37.3662 32.6454 41.6922 37.7166 40.5615 35.803C39.3436 33.7419 37.2644 32.0246 35.7038 30.2206C35.2951 29.7482 34.9024 29.2415 34.4513 28.8071C34.3532 28.7127 35.0604 29.7061 35.1849 29.8359C36.326 31.0256 37.6052 32.139 38.8886 33.1728C39.7056 33.8309 40.0211 33.948 39.3001 32.815C38.252 31.168 37.0766 29.6174 35.9721 28.0109C35.4083 27.1907 37.213 29.5769 37.9403 30.2564C38.7756 31.0369 39.7606 32.013 40.8567 32.4392C41.9568 32.867 39.1248 30.8342 38.2266 30.0685C37.6434 29.5714 37.113 29.025 36.5536 28.503C35.8182 27.8166 36.8836 29.1684 36.9383 29.2365C38.4871 31.1646 40.4371 33.0859 42.5117 34.4521C42.7059 34.5799 43.8525 35.391 43.4779 34.6131C42.949 33.5147 41.8348 32.5665 40.8388 31.9025C40.3021 31.5447 40.0545 31.7497 40.8835 31.9204C41.9446 32.1388 42.9183 32.314 44.0057 32.314C45.1236 32.314 42.0473 32.314 41.8229 32.314C40.8388 32.314 39.8547 32.314 38.8707 32.314C38.4255 32.314 37.1957 32.1095 37.5377 32.3945C37.8272 32.6358 38.6311 32.2647 38.8707 32.1708C40.2964 31.6121 41.7057 30.99 43.1111 30.3816C43.7341 30.112 44.3766 29.842 44.9361 29.4512C45.0016 29.4055 45.4098 28.9117 45.3476 29.1292C44.8732 30.7896 43.6386 32.3626 42.9769 33.978C42.6813 34.6997 42.4738 35.4361 42.2433 36.1787C42.066 36.7502 42.4995 35.1514 42.5028 35.1409C42.9745 33.638 43.4895 31.5987 44.4709 30.3369C45.2288 29.3625 43.7525 32.7012 43.3079 33.8527C43.0243 34.5873 42.7574 35.3264 42.5028 36.0713C42.4701 36.1671 42.2897 36.8468 42.306 36.286C42.3559 34.5621 43.2853 33.1927 44.1399 31.7683C44.6299 30.9517 45.0193 30.1179 45.2761 29.2007C45.285 29.169 45.3655 28.6657 45.3655 29.0039C45.3655 30.0834 45.3655 31.1629 45.3655 32.2424C45.3655 33.3039 45.3571 34.3658 45.3655 35.4272C45.3697 35.9467 45.3857 36.4039 45.5266 35.5883C45.8783 33.552 46.4671 31.6791 47.28 29.7822C47.5762 29.0912 47.781 28.4887 47.781 29.5765C47.781 30.1222 47.781 31.7593 47.781 31.2136C47.781 29.9119 48.1539 28.6583 48.2462 27.3668C48.3137 26.4215 48.3727 25.7109 47.3516 26.3917C44.8952 28.0293 42.4191 28.1099 39.9979 26.3917C39.6604 26.1522 39.1033 25.4255 39.9621 25.8549C41.6164 26.6821 42.9968 28.1173 44.3815 29.3081C44.5094 29.4181 45.9402 30.5469 45.9381 30.5248C45.8348 29.4574 44.6833 28.075 44.0057 27.2684C43.5711 26.751 43.5773 26.661 44.0862 27.17C44.7025 27.7862 45.2324 28.4772 45.8486 29.0934C47.0077 30.2525 43.5741 26.6768 42.1718 25.8281C41.9346 25.6845 41.1139 25.2935 40.8925 25.7118C40.7786 25.9269 40.8567 26.3175 40.8567 26.5527C40.8567 26.886 41.1609 27.1247 41.1609 27.3668C41.1609 27.7335 40.8015 26.7259 40.5883 26.4275C40.2489 25.9522 39.7065 25.1335 39.0854 24.9782C38.4429 24.8176 38.2697 28.2009 38.1997 28.6908C38.0983 29.401 37.9901 30.1101 37.8866 30.82C37.8852 30.8298 37.6882 31.8447 37.9045 31.1957C38.4033 29.6992 39.4264 28.6402 40.4273 27.4652C40.6051 27.2565 41.0177 27.0382 41.0177 26.7585C41.0177 26.5004 40.9602 26.2012 41.143 25.998C41.3592 25.7578 41.5206 25.9319 41.465 26.2306C41.2758 27.2479 40.5379 28.1484 40.141 29.0934C39.6374 30.2924 39.2949 31.587 39.0854 32.8686C39.0465 33.1066 38.9244 34.8069 38.9244 34.4342C38.9244 32.1681 39.4992 29.9927 40.2663 27.8767C40.5017 27.2271 40.7157 26.5745 40.9283 25.9175C40.9794 25.7595 41.1688 25.1868 41.1788 25.6939C41.2024 26.8984 41.5008 30.4665 41.1698 29.3081C41.0575 28.9151 40.6054 28.6348 40.302 28.3867C39.9287 28.0812 40.0609 29.6292 40.0873 29.8091C40.3388 31.5191 41.5506 30.2577 41.143 29.326C41.0873 29.1988 41.306 29.6984 41.3219 29.7196C41.8504 30.4243 42.4583 31.0677 43.0038 31.7593C43.46 32.3379 43.887 32.9402 44.3278 33.5307C44.3645 33.5798 45.0334 34.351 44.5872 34.0406C43.4322 33.237 42.316 32.0723 41.3756 31.0257C41.0743 30.6904 40.2627 29.8985 41.1788 29.8985C41.5743 29.8985 43.8418 30.2617 42.467 30.0238C42.1809 29.9743 41.1328 29.7773 40.9641 29.496C40.955 29.4808 42.5955 29.4155 42.7891 29.4155C42.8333 29.4155 43.7751 29.3896 43.4869 29.2902C42.4617 28.9367 41.3414 28.8733 40.311 28.5298C39.2373 28.1719 40.2232 27.7818 40.8388 27.5726C41.8247 27.2375 42.8516 27.0058 43.7373 26.4364C44.0101 26.261 43.8526 26.0553 43.9252 25.8012C44.013 25.4939 45.1973 25.794 45.4013 25.8728C46.1047 26.1446 46.1782 26.3543 45.3566 26.0159C44.713 25.7509 43.4782 25.3322 43.3079 24.5488C42.7037 21.7693 47.3898 21.9994 48.9529 22.6791C49.9248 23.1016 51.1828 23.5323 52.0035 24.2267C52.3216 24.4959 51.4722 24.4235 51.3326 24.4235C50.6409 24.4235 50.5039 26.3696 50.3485 26.8479C49.5599 29.2744 48.5474 31.6877 47.9778 34.1748C47.8463 34.749 47.7859 35.3442 47.6199 35.9103C47.4524 36.482 47.5018 35.635 47.5573 35.4809C47.5955 35.3749 47.8195 34.9728 48.0046 35.0962C48.3963 35.3574 47.5555 36.6056 47.4589 36.8228" stroke="black" stroke-linecap="round" stroke-linejoin="round"/>
<path d="M15.7732 57.4581C15.7732 55.704 16.1246 54.042 16.9326 52.4664C16.9712 52.3912 17.1982 51.8869 17.311 52.1125" stroke="black" stroke-linecap="round" stroke-linejoin="round"/>
<path d="M24.7801 54.0896C24.7216 55.0843 24.3665 56.0632 24.2391 57.0553C24.1375 57.8454 24.0479 58.638 24.0479 59.4352" stroke="black" stroke-linecap="round" stroke-linejoin="round"/>
<path d="M33.3479 55.2612C33.3479 57.3848 33.3479 59.5084 33.3479 61.632" stroke="black" stroke-linecap="round" stroke-linejoin="round"/>
<path d="M40.8169 56.5793C40.8169 58.5616 40.9328 60.5363 41.1098 62.5107C41.1462 62.9164 41.1765 63.3731 41.3295 63.7556" stroke="black" stroke-linecap="round" stroke-linejoin="round"/>
<path d="M48.0664 56.2864C49.0632 57.4669 49.9217 58.9234 50.4097 60.3872" stroke="black" stroke-linecap="round" stroke-linejoin="round"/>
<path d="M55.8284 53.9432C57.4738 55.0894 59.1676 56.4037 60.5881 57.8242" stroke="black" stroke-linecap="round" stroke-linejoin="round"/>
<path d="M62.4189 51.8928C63.6071 52.4465 64.6758 53.2196 65.6735 54.0652C66.2091 54.5192 66.7174 54.98 67.3252 55.3345" stroke="black" stroke-linecap="round" stroke-linejoin="round"/>
<path d="M68.4236 47.2795C70.3305 48.2769 72.0766 49.5585 73.8505 50.77C74.183 50.997 74.8591 51.2577 75.0872 51.5999" stroke="black" stroke-linecap="round" stroke-linejoin="round"/>
<path d="M20.9724 8.39594C21.6576 9.64965 22.2505 10.9577 22.8356 12.2607C22.9122 12.4311 23.4412 13.5428 23.3157 13.6683" stroke="black" stroke-linecap="round" stroke-linejoin="round"/>
<path d="M28.6614 5.75977C29.027 7.06543 29.4759 8.3819 29.9795 9.6408" stroke="black" stroke-linecap="round" stroke-linejoin="round"/>
<path d="M35.1052 3.1236C35.7892 4.42943 36.2233 5.84631 36.5657 7.27313C36.6283 7.53401 36.7894 7.83649 36.7894 8.10303" stroke="black" stroke-linecap="round" stroke-linejoin="round"/>
<path d="M43.5263 1C43.5263 3.1602 43.5263 5.32039 43.5263 7.48059C43.5263 7.64962 43.6886 8.70469 43.3799 8.39593" stroke="black" stroke-linecap="round" stroke-linejoin="round"/>
<path d="M55.4623 1C55.4208 1.82917 55.143 2.60941 54.8846 3.39208C54.5826 4.3068 54.3417 5.2964 53.8838 6.1503C53.818 6.27294 53.5583 6.6018 53.5583 6.27235" stroke="black" stroke-linecap="round" stroke-linejoin="round"/>
<path d="M66.1534 4.00232C65.2768 5.06342 64.3903 6.0074 63.6962 7.20804C63.3812 7.75298 63.2501 8.37733 62.9314 8.90853" stroke="black" stroke-linecap="round" stroke-linejoin="round"/>
</svg>
