<svg width="83" height="111" viewBox="0 0 83 111" fill="none" xmlns="http://www.w3.org/2000/svg">
<path d="M6.84139 39.4192C5.95618 40.6958 5.13735 42.1449 4.33952 43.4844C3.46671 44.9498 2.78025 46.6425 2.36014 48.2943C1.65518 51.0659 1.43791 53.7933 1.19461 56.6259C0.886973 60.2074 0.652999 64.6738 2.88261 67.7751C4.43514 69.9345 6.14538 71.1158 8.79063 71.1158C9.9902 71.1158 10.4943 70.3835 11.1418 69.4857C12.2426 67.9593 13.0236 66.0696 13.7039 64.3237C14.8338 61.424 15.5862 58.7 15.9647 55.5593C16.3929 52.0059 16.4268 48.328 16.4268 44.7523C16.4268 41.4543 16.9961 38.446 13.3925 37.286C11.0425 36.5295 6.47967 37.5676 6.47967 40.5059" stroke="black" stroke-linecap="round" stroke-linejoin="round"/>
<path d="M9.73505 37.2457C9.73505 35.0787 9.63708 32.8889 9.7451 30.7253C9.83146 28.9954 10.427 27.3552 10.6393 25.6538C10.9873 22.8663 12.0031 20.0296 12.9503 17.4027C13.8013 15.0426 15.1859 13.2868 16.5976 11.2545C17.7543 9.58934 18.4776 7.15065 20.265 6.05225C21.4665 5.31388 22.5149 4.36218 23.7515 3.66746C25.2675 2.81576 27.36 2.27153 29.0768 2.10779C32.4184 1.78907 35.7675 1.06788 39.1345 1.02105C42.1251 0.979449 44.9838 0.925861 47.896 1.65498C49.8805 2.15182 51.5155 3.12114 53.1007 4.28127C55.6083 6.11641 56.4239 8.54499 57.6623 11.2445C58.3367 12.7143 58.2404 14.4276 58.6671 15.9537C59.1148 17.5548 59.5593 19.1511 59.9733 20.7635C60.2911 22.0012 60.4938 23.2578 60.8374 24.4866C61.218 25.848 61.8221 27.4954 61.8221 28.914C61.8221 29.8042 62.0915 30.7089 62.1938 31.6309C62.2438 32.0811 62.7252 33.984 62.1838 33.261" stroke="black" stroke-linecap="round" stroke-linejoin="round"/>
<path d="M12.2668 36.3401C12.4805 35.3893 13.1015 34.6698 13.3118 33.6635C13.5853 32.3551 14.0696 31.0504 14.3969 29.7392C14.7896 28.1663 15.3538 26.5399 16.105 25.1105C16.9595 23.4847 17.7487 22.1266 18.9586 20.7635C19.9803 19.6124 21.1155 18.8923 22.3044 17.9662C23.4507 17.0733 24.4355 16.0474 25.7307 15.3399C26.6241 14.8518 28.254 14.1183 29.2675 14.062C30.5527 13.9905 31.794 13.2271 33.0655 13.1563C33.8241 13.1141 34.6095 12.6361 35.4166 12.613C36.3494 12.5863 37.2867 12.613 38.2199 12.613C39.8174 12.613 41.487 12.4319 43.1232 12.4319C44.7926 12.4319 46.3953 13.0691 47.7953 13.9613C50.3081 15.5627 52.503 17.9123 53.5426 20.7233C54.3133 22.8074 55.4936 24.6347 56.2555 26.7406C57.1251 29.1444 57.8463 31.7815 58.3956 34.2572C58.72 35.719 60.0724 35.2534 61.3697 35.2534C62.0083 35.2534 62.413 35.4422 62.5553 34.8006C62.7215 34.0519 62.7261 33.3234 62.7261 32.5365" stroke="black" stroke-linecap="round" stroke-linejoin="round"/>
<path d="M59.2897 35.6156C57.753 35.6541 57.0283 37.1465 56.4362 38.3325C55.8543 39.4978 56.12 41.054 55.8132 42.3172C54.9051 46.0559 56.2151 50.2393 56.2151 53.9896C56.2151 56.1014 56.7894 58.3732 57.3002 60.4195C57.649 61.8167 58.715 62.6926 59.2997 63.9614C60.2291 65.978 63.3223 66.3332 65.258 66.2255C66.2653 66.1694 67.3292 64.393 67.79 63.6495C68.4509 62.5832 68.5627 61.1999 69.0962 60.0673C69.7191 58.7448 70.1761 57.3362 70.4627 55.9014C70.9185 53.6188 71.588 51.3831 71.588 49.0188C71.588 47.3977 71.88 45.5988 71.1459 44.1284C70.0295 41.8924 68.9303 39.1268 66.9661 37.5174C66.1142 36.8194 64.7906 35.8437 63.7207 35.6056C63.2102 35.4919 62.824 35.4345 62.2738 35.4345C61.0091 35.4345 59.8361 35.0723 58.5663 35.0723" stroke="black" stroke-linecap="round" stroke-linejoin="round"/>
<path d="M10.2776 44.4907C8.87862 45.925 7.56469 47.423 7.56469 49.4213C7.56469 50.8038 6.94402 52.1173 6.84126 53.5066C6.76165 54.5829 6.6604 55.6824 6.6604 56.8071C6.6604 57.6141 7.41389 58.222 7.9264 58.7994C9.90319 61.0266 11.7384 53.2986 11.9455 52.2387C12.3421 50.2086 12.267 48.1777 12.267 46.1208C12.267 45.5204 11.8273 45.6048 11.3627 45.5774C11.0391 45.5584 10.7366 45.1734 10.4584 45.0341" stroke="black" stroke-linecap="round" stroke-linejoin="round"/>
<path d="M62.5454 41.9549C61.524 43.2258 60.7368 44.0273 60.7368 45.668C60.7368 46.5656 60.9177 47.4395 60.9177 48.2943C60.9177 49.3433 61.0985 50.3897 61.0985 51.4639C61.0985 52.9226 62.5692 53.0035 63.721 53.0035C65.069 53.0035 64.9701 51.9477 65.2181 50.83C65.4174 49.9315 65.2583 48.853 65.2583 47.932C65.2583 47.1654 65.4391 46.4517 65.4391 45.678C65.4391 43.856 63.6952 43.1646 62.3645 42.4983" stroke="black" stroke-linecap="round" stroke-linejoin="round"/>
<path d="M64.1733 60.9729C65.7843 63.7289 66.6171 67.2897 66.7053 70.4718C66.77 72.8038 66.6906 75.2006 67.1073 77.4954C67.4977 79.6461 67.5214 81.9252 68.1924 84.0158C68.8384 86.0285 68.8646 88.2659 69.5589 90.2746C69.8818 91.2089 70.5337 92.9194 71.4076 93.4342C71.9577 93.7583 72.3771 94.4091 72.9449 94.6618C73.3293 94.8329 73.9517 95.1476 74.2612 95.4266C74.6489 95.7761 75.0974 95.9023 75.487 96.2215C76.4668 97.0244 77.0425 98.5745 77.2755 99.7534C77.5952 101.371 77.8583 103.004 78.0893 104.624C78.1596 105.116 77.9505 105.71 78.642 105.71" stroke="black" stroke-linecap="round" stroke-linejoin="round"/>
<path d="M78.6414 105.892C78.4405 107.07 78.8801 107.115 79.3648 107.964C79.7331 108.61 80.3405 107.915 80.7112 107.703C81.8796 107.034 79.6121 106.106 79.184 105.892" stroke="black" stroke-linecap="round" stroke-linejoin="round"/>
<path d="M80.6313 108.246C80.8265 108.706 81.0237 109.139 81.395 109.474C81.5693 109.631 81.7773 110.152 81.9074 109.957C82.2785 109.399 81.4336 109.128 81.1739 108.608" stroke="black" stroke-linecap="round" stroke-linejoin="round"/>
<path d="M9.31693 46.797C9.21946 47.3285 8.91167 47.6518 8.62129 48.0957C8.50651 48.2712 8.37516 48.4327 8.27347 48.616C8.20625 48.7372 8.23202 48.6215 8.252 48.5429C8.33237 48.2272 8.60353 48.0338 8.84888 47.8463C9.50525 47.3446 10.1596 46.882 10.7426 46.2981C10.7571 46.2836 10.9994 46.015 10.9229 46.1777C10.7464 46.5534 10.2877 46.9321 10.0297 47.2442C9.34376 48.0743 8.50701 49.0801 8.14036 50.1083C8.08557 50.2619 8.04228 50.394 7.99865 50.5469C7.96416 50.6678 7.92406 50.4649 7.92565 50.4437C7.96016 49.9859 8.38237 49.689 8.71147 49.4288C9.48099 48.8204 10.3742 48.4376 11.1333 47.8463C12.1332 47.0674 9.78935 49.9972 9.10223 51.063C8.72258 51.6518 8.34131 52.2077 8.06307 52.8347C7.99558 52.9868 7.96011 53.1674 7.92995 53.3336C7.89434 53.5297 7.97588 52.779 8.02012 52.6756C8.41334 51.7567 9.15679 50.8587 9.90092 50.2029C10.0535 50.0684 10.4725 49.5406 10.691 49.5406C10.7294 49.5406 10.7032 49.8047 10.6996 49.8244C10.644 50.1308 10.3959 50.3933 10.2273 50.6415C9.51358 51.6916 8.86617 52.7863 8.20048 53.8668C8.00598 54.1825 7.69448 54.4843 7.55637 54.8301C7.51485 54.934 7.41473 55.0018 7.3889 55.1182C7.35903 55.2528 7.89516 54.5367 7.98577 54.4473C8.69147 53.7518 9.45967 53.1264 10.0555 52.3273C10.258 52.0557 10.3557 51.6482 10.5923 51.4113C10.673 51.3304 11.0195 50.9361 10.9229 51.2264C10.7959 51.608 10.5478 51.9646 10.3947 52.3402C10.0897 53.0885 9.80063 53.811 9.35128 54.4861C9.14946 54.7892 8.92008 55.0255 8.77588 55.3504C8.66317 55.6044 8.46529 55.7991 8.35077 56.0514C8.2753 56.2177 8.1731 56.8453 7.92565 56.8599C7.66359 56.8753 7.42618 56.7734 7.57354 56.4126C7.71287 56.0715 8.12382 55.7484 8.35077 55.4622C8.75099 54.9575 9.18706 54.5275 9.60893 54.0474C9.82206 53.8049 10.0841 53.7238 10.3604 53.5701C10.8628 53.2905 10.4354 53.9349 10.3217 54.1506C10.1402 54.4951 9.90583 54.8486 9.66475 55.1526C9.41162 55.4718 9.11231 55.9145 8.79306 56.1632C8.56147 56.3436 8.38941 56.6027 8.38941 56.9029C8.38941 57.1853 8.38941 57.4676 8.38941 57.75C8.38941 58.0112 8.39562 57.7757 8.46671 57.6511C8.57603 57.4595 8.6223 57.263 8.77588 57.0921C9.06787 56.7672 9.25126 56.0793 9.6261 55.8708C10.0713 55.6231 9.72547 56.6831 9.66475 56.8169C9.57531 57.0139 9.45275 57.4167 9.27829 57.5565C9.15425 57.6559 8.99803 57.8082 8.93047 57.9436" stroke="black" stroke-linecap="round" stroke-linejoin="round"/>
<path d="M62.5666 43.1337C62.1945 43.6256 61.9334 44.1869 61.5618 44.6653C61.085 45.2792 60.8984 45.4164 61.6431 44.9317C62.2976 44.5056 63.0574 44.3398 63.6305 43.7996C64.2712 43.1957 62.5325 45.1831 61.9017 45.7973C61.8045 45.892 60.8364 46.7762 61.4436 46.3892C61.9847 46.0444 62.5051 45.6805 63.0394 45.3238C63.2001 45.2165 63.7627 44.7467 63.9555 44.7467C64.2011 44.7467 62.5441 46.8384 62.308 47.0551C62.2557 47.1032 61.9773 47.5584 61.9312 47.4991C61.5939 47.0648 63.4594 45.8181 63.6896 45.6789C64.0724 45.4475 64.9307 44.7467 65.411 44.7467C65.511 44.7467 65.0048 45.2989 64.9308 45.3978C64.5405 45.9189 64.1981 46.5049 63.7634 46.9885C63.4838 47.2997 63.0213 47.6997 62.8621 48.091C62.7125 48.4588 62.6953 48.8639 62.3671 49.1268C62.0509 49.3802 62.2272 48.8695 62.3302 48.6977C62.5554 48.3218 62.903 47.8837 63.2906 47.6618C63.4222 47.5865 63.4706 47.4372 63.5714 47.3363C63.9165 46.9907 63.3265 48.2337 63.2906 48.2981C62.9484 48.913 62.2201 50.8619 62.3006 50.1627C62.364 49.613 63.2771 48.9166 63.66 48.4905C63.7823 48.3545 63.8964 48.2791 63.8964 48.5275C63.8964 48.8717 63.6957 48.9625 63.4975 49.2304C63.106 49.7597 62.0605 50.2423 61.9091 50.9247C61.8 51.416 61.6006 51.9448 62.1011 51.0579C62.473 50.3991 63.2441 49.6918 63.8669 49.26C64.8215 48.5981 64.2335 49.349 63.9555 50.0295C63.7279 50.5867 63.195 51.9973 62.6257 52.3231C62.0566 52.6488 62.2098 51.4667 62.441 51.3317C62.6942 51.1838 62.9619 51.0077 63.2315 50.8878C63.3903 50.8171 63.6479 50.9363 63.7634 50.7916C64.4596 49.9201 64.3158 53.1015 63.793 51.9236C63.5373 51.3474 64.0181 50.1903 64.2289 49.6743C64.4365 49.1662 64.5614 48.6744 64.5614 48.128C64.5614 47.6476 64.0614 47.3329 64.0294 46.7888C63.9787 45.9253 63.7557 47.1225 63.4975 47.3955C62.9451 47.9794 62.2654 48.8605 61.3697 48.8605" stroke="black" stroke-linecap="round" stroke-linejoin="round"/>
<path d="M20.9104 8.47838C20.9689 7.63987 21.7813 7.02473 22.3457 6.47852C22.7827 6.0556 23.5381 5.46423 24.1829 5.46423" stroke="black" stroke-linecap="round" stroke-linejoin="round"/>
<path d="M21.2549 10.8036C22.109 9.50946 23.3522 8.29424 24.6805 7.46407C24.987 7.27247 25.3962 7.04052 25.733 6.92822" stroke="black" stroke-linecap="round" stroke-linejoin="round"/>
<path d="M23.2356 11.4925C23.5764 11.0239 23.9546 10.6874 24.3551 10.2869" stroke="black" stroke-linecap="round" stroke-linejoin="round"/>
</svg>
