<svg width="83" height="71" viewBox="0 0 83 71" fill="none" xmlns="http://www.w3.org/2000/svg">
<path d="M1 7.63679C2.79518 8.99678 5.15376 10.571 5.29439 13.1024C5.43557 15.6435 4.50866 17.6309 3.81955 20.0428C3.45136 21.3315 3.3424 22.6949 3.3424 24.0336C3.3424 25.2477 4.00151 25.3994 4.42684 26.4627C5.14939 28.2691 6.0688 30.0937 6.94275 31.8415C8.75369 35.4634 8.02719 40.5558 8.02719 44.5512C8.02719 47.2908 7.84233 49.9475 7.63679 52.6195C7.52096 54.1253 6.32781 55.4206 5.98844 56.9139C5.61101 58.5745 4.90254 60.344 4.20995 61.9023C3.4148 63.6914 5.20409 66.3686 5.6631 67.9752C6.83579 72.0796 11.8609 69.1403 14.4688 68.5608C17.9523 67.7867 21.069 69.7103 24.8144 69.7103C26.5361 69.7103 28.3636 69.3199 29.8896 69.3199C31.6817 69.3199 33.1273 68.1487 34.9647 68.1487C38.5479 68.1487 42.5107 68.9295 46.0911 68.9295C48.1706 68.9295 49.7999 69.3861 49.7999 66.7823C49.7999 64.6279 49.7999 62.4734 49.7999 60.319C49.7999 54.9852 48.8936 48.5423 51.5567 43.7487C51.9894 42.9698 51.7519 41.6705 51.7519 40.799C51.7519 37.9149 52.0317 34.8904 51.1663 32.1018C50.2184 29.0475 49.3499 25.5203 48.0431 22.6455C46.4766 19.1991 46.2863 15.0517 46.2863 11.3239C46.2863 9.3551 46.8286 5.77647 45.4188 4.20995C43.9655 2.59521 42.005 4.12319 40.0399 4.12319C38.0421 4.12319 35.9924 4.20757 34.0972 3.64604C31.6137 2.9102 29.1471 2.23639 26.6796 1.47715C25.676 1.16836 24.7012 1 23.6432 1C22.4757 1 22.0456 1.48433 21.0839 1.75911C17.4313 2.8027 14.1459 3.3424 10.1744 3.3424C8.38424 3.3424 6.85759 5.68479 5.09919 5.68479C4.59408 5.68479 3.4502 6.61645 2.97369 5.90168C2.83918 5.69992 2.81982 6.38088 2.64835 6.55235C2.34266 6.85804 2.14769 7.06294 1.7808 7.24639" stroke="black" stroke-linecap="round" stroke-linejoin="round"/>
<path d="M10.3694 12.3216C12.4167 13.1205 12.8808 13.6902 14.6638 12.7987C15.6319 12.3147 16.6468 11.4483 17.6135 11.1721C20.1261 10.4542 23.7672 15.6934 25.2913 13.1024C26.8518 10.4495 28.3181 12.2066 30.2798 12.9072C31.44 13.3216 32.7009 11.9312 33.9885 11.9312C35.252 11.9312 35.8631 12.1853 36.9165 12.712" stroke="black" stroke-linecap="round" stroke-linejoin="round"/>
<path d="M12.7119 25.9856C15.6998 25.9856 18.6296 26.283 21.6043 26.376C22.5746 26.4063 22.935 26.264 23.6431 25.5952C25.3787 23.956 26.7478 26.4369 28.1327 26.7447C29.2755 26.9986 31.5278 25.5952 33.0127 25.5952C34.3205 25.5952 38.2245 25.9856 36.9167 25.9856" stroke="black" stroke-linecap="round" stroke-linejoin="round"/>
<path d="M13.8833 36.9167C15.3292 36.9167 16.8104 37.2085 18.0042 36.5263C18.8262 36.0566 19.5623 35.7455 20.5201 35.7455C22.6183 35.7455 23.9655 37.5912 25.9857 37.6975C26.8503 37.743 27.3438 37.1138 28.1329 36.9384C28.9468 36.7575 29.8419 37.2635 30.6705 37.3071C31.8155 37.3674 32.9384 37.6975 34.1624 37.6975C34.9993 37.6975 36.6361 37.9756 34.9649 37.3071" stroke="black" stroke-linecap="round" stroke-linejoin="round"/>
<path d="M14.6638 49.4095C17.1747 49.4095 19.5998 49.5268 21.9946 48.6287C23.3605 48.1165 24.757 47.4051 26.1806 47.0888C28.1536 46.6503 29.8004 47.8467 31.451 48.7154C33.3275 49.7031 33.2283 48.6287 35.1598 48.6287C36.268 48.6287 38.4782 49.0288 38.4782 47.4575" stroke="black" stroke-linecap="round" stroke-linejoin="round"/>
<path d="M11.9314 61.9023C13.9722 61.9023 16.6624 62.378 18.5682 61.4251C20.2239 60.5973 21.5143 59.5599 23.4265 59.5599C25.6369 59.5599 27.9011 60.3296 30.1067 59.9286C31.2767 59.7159 31.9513 58.7791 33.2082 58.7791C34.0311 58.7791 35.3908 59.5323 36.1362 59.8635C37.399 60.4248 38.0389 59.419 39.0642 59.1912C39.8295 59.0211 41.8469 59.0726 40.8209 58.3887" stroke="black" stroke-linecap="round" stroke-linejoin="round"/>
<path d="M60.5606 29.7318C59.8945 31.6316 59.1104 33.6739 58.1344 35.4306C58.0489 35.5844 58.0261 36.0511 58.1908 35.7629C58.4231 35.3564 59.1471 35.3312 59.545 35.2864C61.1321 35.1076 65.8817 34.5842 64.2846 34.5842" stroke="black" stroke-linecap="round" stroke-linejoin="round"/>
<path d="M59.6579 32.8915C59.7588 32.9704 60.7736 34.0202 60.6108 34.183C60.4722 34.3216 60.0667 34.2457 59.8836 34.2457C59.5928 34.2457 59.5455 34.4711 59.3193 34.5842" stroke="black" stroke-linecap="round" stroke-linejoin="round"/>
<path d="M60.6736 29.3932C60.865 29.8549 61.0918 30.3058 61.3256 30.7474C61.4386 30.9609 62.0048 30.7328 62.2535 30.7474C62.5131 30.7627 62.2347 32.2448 62.8804 31.8759C63.2209 31.6813 63.4948 31.7369 63.4948 32.158C63.4948 32.5822 63.6837 32.4699 63.9963 32.5592C64.4872 32.6995 64.0796 33.9071 64.9618 33.9071" stroke="black" stroke-linecap="round" stroke-linejoin="round"/>
<path d="M60.7861 28.829C61.3423 28.612 62.1528 28.315 62.5666 27.9011C62.7383 27.7295 62.9294 27.5886 63.0995 27.4184C63.2821 27.2358 63.6985 26.9728 63.8079 26.7977C64.0416 26.4239 64.7995 26.3196 65.0493 25.895C65.501 25.127 66.1665 24.6117 66.7044 23.9201C66.9466 23.6087 67.2804 23.3658 67.557 23.0738C67.9705 22.6373 68.18 22.1488 68.5162 21.6632C68.9144 21.088 69.295 20.4844 69.839 20.0269C70.3126 19.6287 70.7759 19.1951 71.1117 18.6727C71.7064 17.7476 72.545 17.0034 73.1429 16.0835C73.4693 15.5814 73.8883 15.0657 74.3028 14.6353C74.6315 14.2939 75.0733 14.0664 75.2306 13.5946" stroke="black" stroke-linecap="round" stroke-linejoin="round"/>
<path d="M65.0747 34.3585C66.4235 33.5361 67.2048 32.231 68.3974 31.2552C68.9551 30.7989 69.8691 30.3633 70.2406 29.7318C70.505 29.2823 71.0675 28.8171 71.4506 28.434C72.4694 27.4152 73.5569 26.5583 74.4975 25.4436C75.4274 24.3414 76.6311 23.3707 77.4002 22.1459C77.8824 21.3779 78.4621 20.7013 79.0615 20.0269C79.5403 19.4883 79.9205 18.8356 80.422 18.3342" stroke="black" stroke-linecap="round" stroke-linejoin="round"/>
<path d="M75.682 13.8203C77.8567 13.8203 79.5121 15.4493 80.4467 17.3185C80.6669 17.7589 80.5661 17.7569 80.7853 17.3185C80.9622 16.9646 81.2437 16.7043 81.4373 16.3656C81.5565 16.1569 81.927 16.0275 81.9952 15.7888C82.0614 15.5572 81.4233 14.971 81.2993 14.723C80.9557 14.0358 80.4586 13.6315 79.9138 13.0867C79.4133 12.5863 78.7907 12.3673 78.2525 11.9269C77.9711 11.6967 76.5322 11.2624 76.2463 11.6197C76.085 11.8213 75.2646 13.0473 75.4563 13.1432" stroke="black" stroke-linecap="round" stroke-linejoin="round"/>
<path d="M64.2847 28.6033C65.4274 28.1408 66.3208 27.1751 67.1936 26.3213C67.7474 25.7796 68.169 25.0058 68.7735 24.5408C69.422 24.0419 69.8684 23.216 70.6041 22.8481" stroke="black" stroke-linecap="round" stroke-linejoin="round"/>
<path d="M73.3125 20.704C73.6547 19.8786 74.3901 19.4057 74.9488 18.7229C75.3515 18.2307 75.9679 17.763 76.2465 17.2057" stroke="black" stroke-linecap="round" stroke-linejoin="round"/>
<path d="M71.281 26.0078C71.9912 24.9843 72.8016 23.9644 73.6257 23.0487C73.9116 22.7311 74.42 22.3461 74.5536 21.9453" stroke="black" stroke-linecap="round" stroke-linejoin="round"/>
</svg>
